<svg width="24" height="24" viewBox="0 0 24 24" fill="none" xmlns="http://www.w3.org/2000/svg">
<path d="M18 15.75V17.25H19.311C18.4793 18.4123 17.3818 19.359 16.1101 20.0113C14.8384 20.6636 13.4292 21.0026 12 21C7.03725 21 3 16.9627 3 12H1.5C1.5 17.79 6.21 22.5 12 22.5C15.2662 22.5 18.2805 20.9993 20.25 18.4913V19.5H21.75V15.75H18Z" fill="#969696"/>
<path d="M16.8787 8.72775L12.387 6.10275C12.2723 6.03569 12.1419 6.00028 12.0091 6.00015C11.8763 6.00002 11.7458 6.03517 11.631 6.102L7.12275 8.727C7.00938 8.79298 6.91529 8.88754 6.84989 9.00125C6.78448 9.11495 6.75004 9.24383 6.75 9.375V14.625C6.75004 14.7562 6.78448 14.885 6.84989 14.9988C6.91529 15.1125 7.00938 15.207 7.12275 15.273L11.631 17.898C11.7425 17.9647 11.87 17.9999 12 18C12.1305 18 12.27 17.9663 12.387 17.8973L16.8787 15.2723C16.9917 15.2061 17.0854 15.1116 17.1506 14.9981C17.2157 14.8845 17.25 14.7559 17.25 14.625V9.375C17.25 9.2441 17.2157 9.11548 17.1506 9.00193C17.0854 8.88838 16.9917 8.79386 16.8787 8.72775ZM12.0082 7.61775L15.0135 9.375L12.0082 11.1315L8.991 9.375L12.0082 7.61775ZM8.25 10.68L11.25 12.4275V15.9412L8.25 14.1938V10.68ZM12.75 15.9488V12.4365L15.75 10.683V14.1953L12.75 15.9488Z" fill="#969696"/>
<path d="M12 1.5C10.4107 1.4977 8.84176 1.8575 7.41228 2.5521C5.9828 3.2467 4.73035 4.25783 3.75 5.50875V4.5H2.25V8.25H6V6.75H4.689C5.52073 5.58769 6.61816 4.64095 7.88988 3.98866C9.16159 3.33637 10.5708 2.9974 12 3C16.9628 3 21 7.03725 21 12H22.5C22.5 6.21 17.79 1.5 12 1.5Z" fill="#969696"/>
</svg>
