<svg width="25" height="24" viewBox="0 0 25 24" fill="none" xmlns="http://www.w3.org/2000/svg">
<path d="M11 21C11.8284 21 12.5 20.3284 12.5 19.5C12.5 18.6716 11.8284 18 11 18C10.1716 18 9.5 18.6716 9.5 19.5C9.5 20.3284 10.1716 21 11 21Z" fill="#A3A3A3"/>
<path d="M18 21C18.8284 21 19.5 20.3284 19.5 19.5C19.5 18.6716 18.8284 18 18 18C17.1716 18 16.5 18.6716 16.5 19.5C16.5 20.3284 17.1716 21 18 21Z" fill="#A3A3A3"/>
<path d="M13.4998 12.9993H15.4998V10.0093H18.4898V8.0093H15.4998V5.0293H13.4998V8.0093H10.5098V10.0093H13.4998V12.9993Z" fill="#A3A3A3"/>
<path d="M10.5 17H18.5C18.7014 16.9994 18.898 16.938 19.064 16.8238C19.2299 16.7096 19.3575 16.5479 19.43 16.36L22.26 9H20.12L17.81 15H11.17L6.68 4.23C6.52776 3.86507 6.27077 3.55344 5.94149 3.33452C5.61221 3.11559 5.22542 2.99918 4.83 3H2.5V5H4.83L9.58 16.38C9.65502 16.5626 9.78242 16.719 9.94614 16.8293C10.1099 16.9396 10.3026 16.999 10.5 17Z" fill="#A3A3A3"/>
</svg>
