<svg width="24" height="24" viewBox="0 0 24 24" fill="none" xmlns="http://www.w3.org/2000/svg">
<path d="M9.56397 8.73L10.079 10.593C10.564 12.348 10.806 13.226 11.519 13.625C12.232 14.025 13.137 13.789 14.947 13.319L16.867 12.819C18.677 12.349 19.582 12.114 19.994 11.423C20.406 10.731 20.164 9.853 19.678 8.098L19.164 6.236C18.679 4.48 18.436 3.602 17.724 3.203C17.01 2.803 16.105 3.039 14.295 3.51L12.375 4.008C10.565 4.478 9.65997 4.714 9.24897 5.406C8.83697 6.097 9.07897 6.975 9.56397 8.73Z" fill="#A3A3A3"/>
<path d="M2.277 5.24678C2.30335 5.15181 2.34816 5.06296 2.40887 4.98531C2.46958 4.90766 2.54499 4.84274 2.63081 4.79426C2.71662 4.74578 2.81115 4.71469 2.90899 4.70277C3.00683 4.69085 3.10606 4.69833 3.201 4.72478L4.904 5.19678C5.35521 5.31963 5.76695 5.55714 6.09919 5.88623C6.43143 6.21531 6.67286 6.62477 6.8 7.07478L8.951 14.8608L9.109 15.4078C9.74676 15.6428 10.2842 16.0902 10.631 16.6748L10.941 16.5788L19.811 14.2738C19.9063 14.249 20.0056 14.2432 20.1032 14.2567C20.2008 14.2703 20.2948 14.3029 20.3797 14.3528C20.4647 14.4026 20.539 14.4688 20.5984 14.5473C20.6578 14.6259 20.7012 14.7154 20.726 14.8108C20.7508 14.9061 20.7566 15.0054 20.7431 15.103C20.7295 15.2006 20.6969 15.2945 20.647 15.3795C20.5971 15.4645 20.531 15.5388 20.4524 15.5982C20.3739 15.6576 20.2843 15.701 20.189 15.7258L11.352 18.0218L11.022 18.1238C11.016 19.3938 10.139 20.5558 8.81201 20.8998C7.222 21.3138 5.587 20.3978 5.161 18.8558C4.735 17.3138 5.679 15.7268 7.269 15.3138C7.34834 15.2938 7.42734 15.2764 7.506 15.2618L5.354 7.47378C5.29581 7.27383 5.18699 7.09229 5.03809 6.94671C4.88918 6.80113 4.70522 6.69644 4.504 6.64278L2.8 6.16978C2.70505 6.14354 2.61619 6.09884 2.53852 6.03824C2.46084 5.97765 2.39586 5.90234 2.34729 5.81663C2.29872 5.73092 2.26752 5.63648 2.25546 5.5387C2.2434 5.44092 2.25072 5.34173 2.277 5.24678Z" fill="#A3A3A3"/>
</svg>
