<svg width="111" height="28" viewBox="0 0 111 28" fill="none" xmlns="http://www.w3.org/2000/svg">
<rect width="111" height="28" rx="8" fill="#FFF0F0" fill-opacity="0.941176"/>
<path d="M12 11.3333L16 16.6667M16 11.3333L12 16.6667M14 20C15.5913 20 17.1174 19.3679 18.2426 18.2426C19.3679 17.1174 20 15.5913 20 14C20 12.4087 19.3679 10.8826 18.2426 9.75736C17.1174 8.63214 15.5913 8 14 8C12.4087 8 10.8826 8.63214 9.75736 9.75736C8.63214 10.8826 8 12.4087 8 14C8 15.5913 8.63214 17.1174 9.75736 18.2426C10.8826 19.3679 12.4087 20 14 20Z" stroke="#E50000" stroke-linecap="round" stroke-linejoin="round"/>
<path d="M27.376 20V8.64H31.024C32.8053 8.64 34.176 9.136 35.136 10.128C36.096 11.1093 36.576 12.512 36.576 14.336C36.576 16.1493 36.1013 17.5467 35.152 18.528C34.2133 19.5093 32.8693 20 31.12 20H27.376ZM29.104 18.416H31.024C32.2827 18.416 33.2213 18.08 33.84 17.408C34.4693 16.7253 34.784 15.7013 34.784 14.336C34.784 12.9493 34.4693 11.92 33.84 11.248C33.2213 10.5653 32.2827 10.224 31.024 10.224H29.104V18.416ZM38.0549 20V11.488H39.7509V20H38.0549ZM38.0229 10.256V8.56H39.7829V10.256H38.0229ZM45.9154 20.192C45.3287 20.192 44.806 20.064 44.3474 19.808C43.8994 19.5413 43.5527 19.1787 43.3074 18.72L43.2594 20H41.6754V8.64H43.3714V12.688C43.5954 12.3147 43.926 11.9893 44.3634 11.712C44.8114 11.4347 45.3287 11.296 45.9154 11.296C46.6514 11.296 47.2914 11.4773 47.8354 11.84C48.3794 12.2027 48.7954 12.72 49.0834 13.392C49.382 14.0533 49.5314 14.8373 49.5314 15.744C49.5314 16.6507 49.382 17.44 49.0834 18.112C48.7954 18.7733 48.3794 19.2853 47.8354 19.648C47.2914 20.0107 46.6514 20.192 45.9154 20.192ZM45.6434 18.72C46.294 18.72 46.8114 18.4587 47.1954 17.936C47.5794 17.4027 47.7714 16.672 47.7714 15.744C47.7714 14.816 47.5794 14.0907 47.1954 13.568C46.8114 13.0347 46.2994 12.768 45.6594 12.768C45.1794 12.768 44.7687 12.8853 44.4274 13.12C44.086 13.3547 43.8247 13.696 43.6434 14.144C43.462 14.5813 43.3714 15.1147 43.3714 15.744C43.3714 16.352 43.462 16.88 43.6434 17.328C43.8247 17.776 44.086 18.1227 44.4274 18.368C44.7687 18.6027 45.174 18.72 45.6434 18.72ZM53.6174 20.192C52.732 20.192 52.0227 19.9893 51.4894 19.584C50.9667 19.1787 50.7054 18.608 50.7054 17.872C50.7054 17.136 50.924 16.5653 51.3614 16.16C51.8094 15.744 52.4974 15.4453 53.4254 15.264L56.3534 14.704C56.3534 14.0427 56.1987 13.552 55.8894 13.232C55.58 12.9013 55.1214 12.736 54.5134 12.736C53.9694 12.736 53.5427 12.8587 53.2334 13.104C52.924 13.3387 52.7107 13.6907 52.5934 14.16L50.8494 14.048C51.0094 13.1947 51.404 12.5227 52.0334 12.032C52.6734 11.5413 53.5 11.296 54.5134 11.296C55.6654 11.296 56.54 11.6053 57.1374 12.224C57.7454 12.832 58.0494 13.6907 58.0494 14.8V18.112C58.0494 18.3147 58.0814 18.4587 58.1454 18.544C58.22 18.6187 58.3374 18.656 58.4974 18.656H58.8014V20C58.748 20.0107 58.6627 20.0213 58.5454 20.032C58.428 20.0427 58.3054 20.048 58.1774 20.048C57.8147 20.048 57.5 19.9893 57.2334 19.872C56.9774 19.7547 56.7854 19.5627 56.6574 19.296C56.5294 19.0187 56.4654 18.6507 56.4654 18.192L56.6414 18.272C56.556 18.6453 56.3694 18.976 56.0814 19.264C55.804 19.552 55.4467 19.7813 55.0094 19.952C54.5827 20.112 54.1187 20.192 53.6174 20.192ZM53.8894 18.848C54.4014 18.848 54.8387 18.752 55.2014 18.56C55.564 18.3573 55.8467 18.08 56.0494 17.728C56.252 17.376 56.3534 16.976 56.3534 16.528V15.984L53.8574 16.464C53.3454 16.56 52.9827 16.7147 52.7694 16.928C52.5667 17.1307 52.4654 17.392 52.4654 17.712C52.4654 18.0747 52.588 18.3573 52.8334 18.56C53.0894 18.752 53.4414 18.848 53.8894 18.848ZM62.8679 20C62.0572 20 61.4599 19.8133 61.0759 19.44C60.6919 19.0667 60.4999 18.4853 60.4999 17.696V9.488H62.1959V17.568C62.1959 17.9627 62.2812 18.2347 62.4519 18.384C62.6225 18.5333 62.8839 18.608 63.2359 18.608H64.4519V20H62.8679ZM59.2039 12.88V11.488H64.4519V12.88H59.2039ZM68.2178 20.192C67.3324 20.192 66.6231 19.9893 66.0898 19.584C65.5671 19.1787 65.3058 18.608 65.3058 17.872C65.3058 17.136 65.5244 16.5653 65.9618 16.16C66.4098 15.744 67.0978 15.4453 68.0258 15.264L70.9538 14.704C70.9538 14.0427 70.7991 13.552 70.4898 13.232C70.1804 12.9013 69.7218 12.736 69.1138 12.736C68.5698 12.736 68.1431 12.8587 67.8338 13.104C67.5244 13.3387 67.3111 13.6907 67.1938 14.16L65.4498 14.048C65.6098 13.1947 66.0044 12.5227 66.6338 12.032C67.2738 11.5413 68.1004 11.296 69.1138 11.296C70.2658 11.296 71.1404 11.6053 71.7378 12.224C72.3458 12.832 72.6498 13.6907 72.6498 14.8V18.112C72.6498 18.3147 72.6818 18.4587 72.7458 18.544C72.8204 18.6187 72.9378 18.656 73.0978 18.656H73.4018V20C73.3484 20.0107 73.2631 20.0213 73.1458 20.032C73.0284 20.0427 72.9058 20.048 72.7778 20.048C72.4151 20.048 72.1004 19.9893 71.8338 19.872C71.5778 19.7547 71.3858 19.5627 71.2578 19.296C71.1298 19.0187 71.0658 18.6507 71.0658 18.192L71.2418 18.272C71.1564 18.6453 70.9698 18.976 70.6818 19.264C70.4044 19.552 70.0471 19.7813 69.6098 19.952C69.1831 20.112 68.7191 20.192 68.2178 20.192ZM68.4898 18.848C69.0018 18.848 69.4391 18.752 69.8018 18.56C70.1644 18.3573 70.4471 18.08 70.6498 17.728C70.8524 17.376 70.9538 16.976 70.9538 16.528V15.984L68.4578 16.464C67.9458 16.56 67.5831 16.7147 67.3698 16.928C67.1671 17.1307 67.0658 17.392 67.0658 17.712C67.0658 18.0747 67.1884 18.3573 67.4338 18.56C67.6898 18.752 68.0418 18.848 68.4898 18.848ZM76.3884 20C75.8337 20 75.3857 19.856 75.0444 19.568C74.703 19.28 74.5324 18.8213 74.5324 18.192V8.64H76.2284V18.032C76.2284 18.224 76.2764 18.368 76.3724 18.464C76.479 18.56 76.6284 18.608 76.8204 18.608H77.4924V20H76.3884ZM78.731 20V8.64H80.427V15.696L84.251 11.488H86.395L83.067 15.072L86.523 20H84.571L81.931 16.128L80.427 17.728V20H78.731ZM89.9074 20.192C89.022 20.192 88.3127 19.9893 87.7794 19.584C87.2567 19.1787 86.9954 18.608 86.9954 17.872C86.9954 17.136 87.214 16.5653 87.6514 16.16C88.0994 15.744 88.7874 15.4453 89.7154 15.264L92.6434 14.704C92.6434 14.0427 92.4887 13.552 92.1794 13.232C91.87 12.9013 91.4114 12.736 90.8034 12.736C90.2594 12.736 89.8327 12.8587 89.5234 13.104C89.214 13.3387 89.0007 13.6907 88.8834 14.16L87.1394 14.048C87.2994 13.1947 87.694 12.5227 88.3234 12.032C88.9634 11.5413 89.79 11.296 90.8034 11.296C91.9554 11.296 92.83 11.6053 93.4274 12.224C94.0354 12.832 94.3394 13.6907 94.3394 14.8V18.112C94.3394 18.3147 94.3714 18.4587 94.4354 18.544C94.51 18.6187 94.6274 18.656 94.7874 18.656H95.0914V20C95.038 20.0107 94.9527 20.0213 94.8354 20.032C94.718 20.0427 94.5954 20.048 94.4674 20.048C94.1047 20.048 93.79 19.9893 93.5234 19.872C93.2674 19.7547 93.0754 19.5627 92.9474 19.296C92.8194 19.0187 92.7554 18.6507 92.7554 18.192L92.9314 18.272C92.846 18.6453 92.6594 18.976 92.3714 19.264C92.094 19.552 91.7367 19.7813 91.2994 19.952C90.8727 20.112 90.4087 20.192 89.9074 20.192ZM90.1794 18.848C90.6914 18.848 91.1287 18.752 91.4914 18.56C91.854 18.3573 92.1367 18.08 92.3394 17.728C92.542 17.376 92.6434 16.976 92.6434 16.528V15.984L90.1474 16.464C89.6354 16.56 89.2727 16.7147 89.0594 16.928C88.8567 17.1307 88.7554 17.392 88.7554 17.712C88.7554 18.0747 88.878 18.3573 89.1234 18.56C89.3794 18.752 89.7314 18.848 90.1794 18.848ZM96.3314 20V11.488H97.8834L97.9474 13.76L97.7394 13.648C97.8354 13.0933 98.0167 12.6453 98.2834 12.304C98.55 11.9627 98.8754 11.712 99.2594 11.552C99.6434 11.3813 100.059 11.296 100.507 11.296C101.147 11.296 101.675 11.44 102.091 11.728C102.518 12.0053 102.838 12.3893 103.051 12.88C103.275 13.36 103.387 13.9093 103.387 14.528V20H101.691V15.04C101.691 14.5387 101.638 14.1173 101.531 13.776C101.425 13.4347 101.249 13.1733 101.003 12.992C100.758 12.8107 100.438 12.72 100.043 12.72C99.446 12.72 98.9607 12.9173 98.5874 13.312C98.214 13.7067 98.0274 14.2827 98.0274 15.04V20H96.3314Z" fill="#E50000"/>
</svg>
