<svg width="254" height="300" version="1.1" xmlns="http://www.w3.org/2000/svg" desc="Created with imagetracer.js version 1.2.6" ><path fill="rgb(0,0,0)" stroke="rgb(0,0,0)" stroke-width="1" opacity="0.00392156862745098" d="M 110 91 L 114 93.5 L 111 92.5 L 110.5 96 L 110 91 Z " /><path fill="rgb(0,0,0)" stroke="rgb(0,0,0)" stroke-width="1" opacity="0.00392156862745098" d="M 142.5 91 Q 145.5 90.1 144 94.5 L 143 94.5 L 142.5 92 L 140 93.5 L 142.5 91 Z " /><path fill="rgb(0,0,0)" stroke="rgb(0,0,0)" stroke-width="1" opacity="0.00392156862745098" d="M 114.5 95 L 122 104.5 L 120 103.5 L 114.5 95 Z " /><path fill="rgb(0,0,0)" stroke="rgb(0,0,0)" stroke-width="1" opacity="0.00392156862745098" d="M 139.5 95 L 135.5 100 L 139.5 95 Z " /><path fill="rgb(0,0,0)" stroke="rgb(0,0,0)" stroke-width="1" opacity="0.00392156862745098" d="M 142.5 97 L 143 101.5 L 142 101.5 L 142.5 97 Z " /><path fill="rgb(0,0,0)" stroke="rgb(0,0,0)" stroke-width="1" opacity="0.00392156862745098" d="M 111.5 98 L 112 101.5 L 111 101.5 L 110 99.5 L 111.5 98 Z " /><path fill="rgb(0,0,0)" stroke="rgb(0,0,0)" stroke-width="1" opacity="0.00392156862745098" d="M 134.5 101 L 133.5 103 L 134.5 101 Z " /><path fill="rgb(0,0,0)" stroke="rgb(0,0,0)" stroke-width="1" opacity="0.00392156862745098" d="M 141.5 105 L 143 107.5 L 142 108.5 L 141.5 124 L 141.5 105 Z " /><path fill="rgb(0,0,0)" stroke="rgb(0,0,0)" stroke-width="1" opacity="0.00392156862745098" d="M 40.5 106 L 44 106.5 L 40.5 107 L 40.5 106 Z " /><path fill="rgb(0,0,0)" stroke="rgb(0,0,0)" stroke-width="1" opacity="0.00392156862745098" d="M 112.5 106 L 113 122.5 L 112 122.5 L 112.5 106 Z " /><path fill="rgb(0,0,0)" stroke="rgb(0,0,0)" stroke-width="1" opacity="0.00392156862745098" d="M 122.5 106 L 124 109.5 L 123 109.5 L 122.5 106 Z " /><path fill="rgb(0,0,0)" stroke="rgb(0,0,0)" stroke-width="1" opacity="0.00392156862745098" d="M 210.5 106 L 214 106.5 L 210.5 107 L 210.5 106 Z " /><path fill="rgb(0,0,0)" stroke="rgb(0,0,0)" stroke-width="1" opacity="0.00392156862745098" d="M 37.5 107 L 39 107.5 L 34 111.5 L 33.5 113 L 33 111.5 L 37.5 107 Z " /><path fill="rgb(0,0,0)" stroke="rgb(0,0,0)" stroke-width="1" opacity="0.00392156862745098" d="M 215.5 107 L 220 110.5 L 216.5 108 L 215.5 107 Z " /><path fill="rgb(0,0,0)" stroke="rgb(0,0,0)" stroke-width="1" opacity="0.00392156862745098" d="M 48.5 108 L 50.5 111 L 48.5 108 Z " /><path fill="rgb(0,0,0)" stroke="rgb(0,0,0)" stroke-width="1" opacity="0.00392156862745098" d="M 205.5 108 L 203.5 111 L 203 109 L 205.5 108 Z " /><path fill="rgb(0,0,0)" stroke="rgb(0,0,0)" stroke-width="1" opacity="0.00392156862745098" d="M 124.5 111 L 125 113.5 L 124 113.5 L 124.5 111 Z " /><path fill="rgb(0,0,0)" stroke="rgb(0,0,0)" stroke-width="1" opacity="0.00392156862745098" d="M 129.5 111 L 130 113.5 L 129 113.5 L 129.5 111 Z " /><path fill="rgb(0,0,0)" stroke="rgb(0,0,0)" stroke-width="1" opacity="0.00392156862745098" d="M 32.5 114 L 33 121.5 L 32 121.5 L 32.5 114 Z " /><path fill="rgb(0,0,0)" stroke="rgb(0,0,0)" stroke-width="1" opacity="0.00392156862745098" d="M 221.5 114 L 222 120.5 L 221 120.5 L 221.5 114 Z " /><path fill="rgb(0,0,0)" stroke="rgb(0,0,0)" stroke-width="1" opacity="0.00392156862745098" d="M 49.5 115 L 50 118.5 L 49 118.5 L 49.5 115 Z " /><path fill="rgb(0,0,0)" stroke="rgb(0,0,0)" stroke-width="1" opacity="0.00392156862745098" d="M 151.5 115 L 150.5 117 L 151.5 115 Z " /><path fill="rgb(0,0,0)" stroke="rgb(0,0,0)" stroke-width="1" opacity="0.00392156862745098" d="M 204.5 116 L 205 118.5 L 204 118.5 L 204.5 116 Z " /><path fill="rgb(0,0,0)" stroke="rgb(0,0,0)" stroke-width="1" opacity="0.00392156862745098" d="M 128.5 117 L 129 121.5 L 128 121.5 L 128.5 117 Z " /><path fill="rgb(0,0,0)" stroke="rgb(0,0,0)" stroke-width="1" opacity="0.00392156862745098" d="M 50.5 120 L 52.5 123 L 50.5 120 Z " /><path fill="rgb(0,0,0)" stroke="rgb(0,0,0)" stroke-width="1" opacity="0.00392156862745098" d="M 203.5 120 L 201.5 123 L 203.5 120 Z " /><path fill="rgb(0,0,0)" stroke="rgb(0,0,0)" stroke-width="1" opacity="0.00392156862745098" d="M 220.5 123 L 221 124.5 L 216 132.5 L 221 133.5 L 216.5 134 Q 213.8 132.8 216 131.5 L 220.5 123 Z " /><path fill="rgb(0,0,0)" stroke="rgb(0,0,0)" stroke-width="1" opacity="0.00392156862745098" d="M 58.5 124 L 65 124.5 L 58.5 125 L 58.5 124 Z " /><path fill="rgb(0,0,0)" stroke="rgb(0,0,0)" stroke-width="1" opacity="0.00392156862745098" d="M 189.5 124 L 196 124.5 L 189.5 125 L 189.5 124 Z " /><path fill="rgb(0,0,0)" stroke="rgb(0,0,0)" stroke-width="1" opacity="0.00392156862745098" d="M 72.5 125 L 77 125.5 L 72.5 126 L 72.5 125 Z " /><path fill="rgb(0,0,0)" stroke="rgb(0,0,0)" stroke-width="1" opacity="0.00392156862745098" d="M 124.5 125 L 126 129 Q 122.2 130.2 124.5 125 Z " /><path fill="rgb(0,0,0)" stroke="rgb(0,0,0)" stroke-width="1" opacity="0.00392156862745098" d="M 129.5 125 L 130 129 Q 127.3 130.1 128 127.5 L 129.5 125 Z " /><path fill="rgb(0,0,0)" stroke="rgb(0,0,0)" stroke-width="1" opacity="0.00392156862745098" d="M 176.5 125 L 182 125.5 L 176.5 126 L 176.5 125 Z " /><path fill="rgb(0,0,0)" stroke="rgb(0,0,0)" stroke-width="1" opacity="0.00392156862745098" d="M 111.5 127 L 112 131.5 L 111 131.5 L 111.5 127 Z " /><path fill="rgb(0,0,0)" stroke="rgb(0,0,0)" stroke-width="1" opacity="0.00392156862745098" d="M 142.5 127 L 143 132.5 L 142 132.5 L 142.5 127 Z " /><path fill="rgb(0,0,0)" stroke="rgb(0,0,0)" stroke-width="1" opacity="0.00392156862745098" d="M 35.5 128 L 39 132.5 Q 38 135 33.5 134 L 33.5 133 L 38 132.5 L 35.5 128 Z " /><path fill="rgb(0,0,0)" stroke="rgb(0,0,0)" stroke-width="1" opacity="0.00392156862745098" d="M 84.5 128 L 88 132.5 L 87 132.5 L 84.5 128 Z " /><path fill="rgb(0,0,0)" stroke="rgb(0,0,0)" stroke-width="1" opacity="0.00392156862745098" d="M 169.5 128 L 166.5 132 L 169.5 128 Z " /><path fill="rgb(0,0,0)" stroke="rgb(0,0,0)" stroke-width="1" opacity="0.00392156862745098" d="M 123 130 Q 126 129 125 132 Q 122 133 123 130 Z " /><path fill="rgb(0,0,0)" stroke="rgb(0,0,0)" stroke-width="1" opacity="0.00392156862745098" d="M 129 130 Q 132.3 128.7 131 133.5 Q 136.4 150.6 145.5 164 L 147 163.5 Q 147.8 165.8 145.5 165 L 146 166.5 L 148 169.5 L 145 167.5 L 144 165.5 L 144.5 164 L 142 162.5 L 129 130 Z " /><path fill="rgb(0,0,0)" stroke="rgb(0,0,0)" stroke-width="1" opacity="0.00392156862745098" d="M 123.5 133 L 124 134.5 L 112 162 L 110 161.5 L 123.5 133 Z " /><path fill="rgb(0,0,0)" stroke="rgb(0,0,0)" stroke-width="1" opacity="0.00392156862745098" d="M 165.5 133 L 166 135.5 L 165 135.5 L 165.5 133 Z " /><path fill="rgb(0,0,0)" stroke="rgb(0,0,0)" stroke-width="1" opacity="0.00392156862745098" d="M 28.5 134 L 31 134.5 L 28.5 135 L 28.5 134 Z " /><path fill="rgb(0,0,0)" stroke="rgb(0,0,0)" stroke-width="1" opacity="0.00392156862745098" d="M 88.5 134 L 89 136.5 L 88 136.5 L 88.5 134 Z " /><path fill="rgb(0,0,0)" stroke="rgb(0,0,0)" stroke-width="1" opacity="0.00392156862745098" d="M 126.5 134 Q 129.3 135.4 128 140 L 126 140 L 126.5 134 Z " /><path fill="rgb(0,0,0)" stroke="rgb(0,0,0)" stroke-width="1" opacity="0.00392156862745098" d="M 223.5 134 L 226 134.5 L 223.5 135 L 223.5 134 Z " /><path fill="rgb(0,0,0)" stroke="rgb(0,0,0)" stroke-width="1" opacity="0.00392156862745098" d="M 24.5 135 L 27 135.5 L 24.5 136 L 24.5 135 Z " /><path fill="rgb(0,0,0)" stroke="rgb(0,0,0)" stroke-width="1" opacity="0.00392156862745098" d="M 21.5 136 L 23 136.5 L 19.5 138 L 19.5 137 L 21.5 136 Z " /><path fill="rgb(0,0,0)" stroke="rgb(0,0,0)" stroke-width="1" opacity="0.00392156862745098" d="M 110.5 136 L 111 139.5 L 110 139.5 L 110.5 136 Z " /><path fill="rgb(0,0,0)" stroke="rgb(0,0,0)" stroke-width="1" opacity="0.00392156862745098" d="M 143.5 136 L 144 140.5 L 143 140.5 L 143.5 136 Z " /><path fill="rgb(0,0,0)" stroke="rgb(0,0,0)" stroke-width="1" opacity="0.00392156862745098" d="M 231.5 136 L 235 137.5 L 233.5 138 L 231.5 136 Z " /><path fill="rgb(0,0,0)" stroke="rgb(0,0,0)" stroke-width="1" opacity="0.00392156862745098" d="M 88.5 138 L 89 141.5 L 88 141.5 L 88.5 138 Z " /><path fill="rgb(0,0,0)" stroke="rgb(0,0,0)" stroke-width="1" opacity="0.00392156862745098" d="M 238.5 139 L 249 147.5 L 253 155.5 L 252 155.5 Q 249.5 147.5 243.5 143 Q 238.9 141.8 238.5 139 Z " /><path fill="rgb(0,0,0)" stroke="rgb(0,0,0)" stroke-width="1" opacity="0.00392156862745098" d="M 13.5 140 L 12.5 142 L 13.5 140 Z " /><path fill="rgb(0,0,0)" stroke="rgb(0,0,0)" stroke-width="1" opacity="0.00392156862745098" d="M 165.5 140 L 166 143.5 L 156 152.5 L 154.5 156 L 154 154.5 L 162.5 145 L 165 143.5 L 165.5 140 Z " /><path fill="rgb(0,0,0)" stroke="rgb(0,0,0)" stroke-width="1" opacity="0.00392156862745098" d="M 10.5 142 L 5.5 148 L 10.5 142 Z " /><path fill="rgb(0,0,0)" stroke="rgb(0,0,0)" stroke-width="1" opacity="0.00392156862745098" d="M 88.5 143 L 90.5 146 L 88.5 143 Z " /><path fill="rgb(0,0,0)" stroke="rgb(0,0,0)" stroke-width="1" opacity="0.00392156862745098" d="M 125.5 143 L 126 145.5 L 125 145.5 L 125.5 143 Z " /><path fill="rgb(0,0,0)" stroke="rgb(0,0,0)" stroke-width="1" opacity="0.00392156862745098" d="M 128.5 143 L 129 146.5 L 128 146.5 L 128.5 143 Z " /><path fill="rgb(0,0,0)" stroke="rgb(0,0,0)" stroke-width="1" opacity="0.00392156862745098" d="M 109.5 144 L 110 148 L 108 147.5 L 109.5 144 Z " /><path fill="rgb(0,0,0)" stroke="rgb(0,0,0)" stroke-width="1" opacity="0.00392156862745098" d="M 144.5 145 L 145 149.5 L 144 149.5 L 144.5 145 Z " /><path fill="rgb(0,0,0)" stroke="rgb(0,0,0)" stroke-width="1" opacity="0.00392156862745098" d="M 92.5 146 Q 98.4 148.6 100 155.5 L 99 155.5 L 92.5 146 Z " /><path fill="rgb(0,0,0)" stroke="rgb(0,0,0)" stroke-width="1" opacity="0.00392156862745098" d="M 124.5 148 L 125 151.5 L 124 151.5 L 124.5 148 Z " /><path fill="rgb(0,0,0)" stroke="rgb(0,0,0)" stroke-width="1" opacity="0.00392156862745098" d="M 4.5 149 L 3.5 151 L 4.5 149 Z " /><path fill="rgb(0,0,0)" stroke="rgb(0,0,0)" stroke-width="1" opacity="0.00392156862745098" d="M 129.5 149 L 130 151.5 L 129 151.5 L 129.5 149 Z " /><path fill="rgb(0,0,0)" stroke="rgb(0,0,0)" stroke-width="1" opacity="0.00392156862745098" d="M 108.5 152 L 109 157.5 L 108 157.5 L 108.5 152 Z " /><path fill="rgb(0,0,0)" stroke="rgb(0,0,0)" stroke-width="1" opacity="0.00392156862745098" d="M 24.5 153 L 35 153.5 L 24.5 154 L 24.5 153 Z " /><path fill="rgb(0,0,0)" stroke="rgb(0,0,0)" stroke-width="1" opacity="0.00392156862745098" d="M 145.5 153 L 146 158.5 L 145 158.5 L 145.5 153 Z " /><path fill="rgb(0,0,0)" stroke="rgb(0,0,0)" stroke-width="1" opacity="0.00392156862745098" d="M 219.5 153 L 230 153.5 L 219.5 154 L 219.5 153 Z " /><path fill="rgb(0,0,0)" stroke="rgb(0,0,0)" stroke-width="1" opacity="0.00392156862745098" d="M 1.5 154 L 2 155.5 L 0.5 159 L 0 156.5 L 1.5 154 Z " /><path fill="rgb(0,0,0)" stroke="rgb(0,0,0)" stroke-width="1" opacity="0.00392156862745098" d="M 40.5 155 L 47 158.5 L 45.5 158 L 40.5 156 L 40.5 155 Z " /><path fill="rgb(0,0,0)" stroke="rgb(0,0,0)" stroke-width="1" opacity="0.00392156862745098" d="M 212.5 155 L 214 155.5 L 207.5 159 L 208.5 157 L 212.5 155 Z " /><path fill="rgb(0,0,0)" stroke="rgb(0,0,0)" stroke-width="1" opacity="0.00392156862745098" d="M 124.5 156 L 126 160.5 L 125 160.5 L 124.5 159 L 123.5 161 L 122 157.5 L 123 157.5 L 123.5 159 L 124.5 156 Z " /><path fill="rgb(0,0,0)" stroke="rgb(0,0,0)" stroke-width="1" opacity="0.00392156862745098" d="M 100.5 157 L 101 159.5 L 100 159.5 L 100.5 157 Z " /><path fill="rgb(0,0,0)" stroke="rgb(0,0,0)" stroke-width="1" opacity="0.00392156862745098" d="M 129.5 157 L 130.5 159 L 131.5 157 L 132 158.5 L 130.5 161 L 129.5 159 L 128.5 161 L 128 158.5 L 129.5 157 Z " /><path fill="rgb(0,0,0)" stroke="rgb(0,0,0)" stroke-width="1" opacity="0.00392156862745098" d="M 243.5 157 L 247 158.5 L 245.5 159 L 243.5 157 Z " /><path fill="rgb(0,0,0)" stroke="rgb(0,0,0)" stroke-width="1" opacity="0.00392156862745098" d="M 4.5 159 L 6 159.5 L 0.5 162 L 0.5 161 L 4.5 159 Z " /><path fill="rgb(0,0,0)" stroke="rgb(0,0,0)" stroke-width="1" opacity="0.00392156862745098" d="M 48.5 159 L 50.5 162 L 48.5 159 Z " /><path fill="rgb(0,0,0)" stroke="rgb(0,0,0)" stroke-width="1" opacity="0.00392156862745098" d="M 205.5 159 L 203.5 162 L 205.5 159 Z " /><path fill="rgb(0,0,0)" stroke="rgb(0,0,0)" stroke-width="1" opacity="0.00392156862745098" d="M 248.5 159 L 254 161.5 L 252.5 162 L 248.5 160 L 248.5 159 Z " /><path fill="rgb(0,0,0)" stroke="rgb(0,0,0)" stroke-width="1" opacity="0.00392156862745098" d="M 121.5 160 L 123 162.5 L 121 161.5 L 121.5 160 Z " /><path fill="rgb(0,0,0)" stroke="rgb(0,0,0)" stroke-width="1" opacity="0.00392156862745098" d="M 132.5 160 L 133 161.5 L 132 163.5 L 134 163.5 L 133 165.5 L 135 166 L 136 170 Q 133.3 171.1 134 168.5 L 131 162.5 L 132.5 160 Z " /><path fill="rgb(0,0,0)" stroke="rgb(0,0,0)" stroke-width="1" opacity="0.00392156862745098" d="M 52.5 162 L 58 166.5 L 56.5 166 L 52.5 162 Z " /><path fill="rgb(0,0,0)" stroke="rgb(0,0,0)" stroke-width="1" opacity="0.00392156862745098" d="M 107.5 162 L 108.5 164 L 110.5 163 L 110 164.5 L 108.5 167 L 108.5 165 Q 105.4 165.7 107.5 162 Z " /><path fill="rgb(0,0,0)" stroke="rgb(0,0,0)" stroke-width="1" opacity="0.00392156862745098" d="M 124.5 162 L 125 164.5 L 124 164.5 L 124.5 162 Z " /><path fill="rgb(0,0,0)" stroke="rgb(0,0,0)" stroke-width="1" opacity="0.00392156862745098" d="M 201.5 162 L 199.5 165 L 201.5 162 Z " /><path fill="rgb(0,0,0)" stroke="rgb(0,0,0)" stroke-width="1" opacity="0.00392156862745098" d="M 100.5 163 L 101 165.5 L 99.5 168 L 99 166.5 L 100.5 163 Z " /><path fill="rgb(0,0,0)" stroke="rgb(0,0,0)" stroke-width="1" opacity="0.00392156862745098" d="M 120.5 163 L 122 165.5 L 119 172 L 117 172.5 L 117 174.5 Q 111.4 186.9 101.5 195 L 100 194.5 L 98.5 197 L 97 196.5 L 95.5 199 L 92.5 200 L 91.5 198 L 97.5 195 L 99 195.5 L 102.5 191 L 107 187.5 Q 115.2 178.5 119 166 L 121 165.5 L 120.5 163 Z " /><path fill="rgb(0,0,0)" stroke="rgb(0,0,0)" stroke-width="1" opacity="0.00392156862745098" d="M 129.5 163 L 130 165.5 L 129 165.5 L 129.5 163 Z " /><path fill="rgb(0,0,0)" stroke="rgb(0,0,0)" stroke-width="1" opacity="0.00392156862745098" d="M 153.5 163 L 154 165.5 L 153 165.5 L 153.5 163 Z " /><path fill="rgb(0,0,0)" stroke="rgb(0,0,0)" stroke-width="1" opacity="0.00392156862745098" d="M 197.5 165 L 196.5 167 L 193.5 168 L 193.5 167 L 197.5 165 Z " /><path fill="rgb(0,0,0)" stroke="rgb(0,0,0)" stroke-width="1" opacity="0.00392156862745098" d="M 75.5 166 L 72.5 170 L 70.5 171 L 70.5 169 L 69 168.5 L 70.5 168 L 72.5 169 L 72.5 167 L 75.5 166 Z " /><path fill="rgb(0,0,0)" stroke="rgb(0,0,0)" stroke-width="1" opacity="0.00392156862745098" d="M 178.5 166 L 181 167 L 181.5 169 L 184.5 168 L 184.5 169 L 183 169.5 L 183.5 171 L 178.5 166 Z " /><path fill="rgb(0,0,0)" stroke="rgb(0,0,0)" stroke-width="1" opacity="0.00392156862745098" d="M 59.5 167 L 64 168.5 L 61.5 169 L 59.5 167 Z " /><path fill="rgb(0,0,0)" stroke="rgb(0,0,0)" stroke-width="1" opacity="0.00392156862745098" d="M 107.5 168 L 106 170.5 L 97.5 180 L 100 176.5 L 99.5 175 L 100.5 176 L 105 171.5 L 107.5 168 Z " /><path fill="rgb(0,0,0)" stroke="rgb(0,0,0)" stroke-width="1" opacity="0.00392156862745098" d="M 98.5 169 L 96.5 172 L 98.5 169 Z " /><path fill="rgb(0,0,0)" stroke="rgb(0,0,0)" stroke-width="1" opacity="0.00392156862745098" d="M 155.5 169 L 160.5 175 L 164 177.5 L 161.5 176 L 157 172.5 L 155.5 169 Z " /><path fill="rgb(0,0,0)" stroke="rgb(0,0,0)" stroke-width="1" opacity="0.00392156862745098" d="M 148.5 171 L 151.5 175 L 148.5 171 Z " /><path fill="rgb(0,0,0)" stroke="rgb(0,0,0)" stroke-width="1" opacity="0.00392156862745098" d="M 187.5 172 L 197 177.5 L 195.5 177 L 188.5 174 L 187.5 172 Z " /><path fill="rgb(0,0,0)" stroke="rgb(0,0,0)" stroke-width="1" opacity="0.00392156862745098" d="M 64.5 173 L 63.5 175 L 57.5 178 L 58.5 176 L 64.5 173 Z " /><path fill="rgb(0,0,0)" stroke="rgb(0,0,0)" stroke-width="1" opacity="0.00392156862745098" d="M 95.5 173 L 94.5 175 L 90.5 178 L 93.5 174 L 95.5 173 Z " /><path fill="rgb(0,0,0)" stroke="rgb(0,0,0)" stroke-width="1" opacity="0.00392156862745098" d="M 136.5 173 Q 138.8 172.3 138 174.5 L 151.5 192 L 160 197.5 L 160.5 199 L 162.5 198 L 161.5 200 L 157 197.5 L 156.5 196 Q 155.3 198.3 154 195.5 L 153.5 194 L 152.5 195 L 145 187.5 L 145.5 186 L 142 183.5 L 136.5 173 Z " /><path fill="rgb(0,0,0)" stroke="rgb(0,0,0)" stroke-width="1" opacity="0.00392156862745098" d="M 120.5 176 L 121 177.5 L 119.5 180 L 119 178.5 L 120.5 176 Z " /><path fill="rgb(0,0,0)" stroke="rgb(0,0,0)" stroke-width="1" opacity="0.00392156862745098" d="M 153.5 176 L 156.5 180 L 153.5 176 Z " /><path fill="rgb(0,0,0)" stroke="rgb(0,0,0)" stroke-width="1" opacity="0.00392156862745098" d="M 55.5 178 L 54.5 180 L 48 185.5 L 46.5 190 L 46 187.5 L 53.5 179 L 55.5 178 Z " /><path fill="rgb(0,0,0)" stroke="rgb(0,0,0)" stroke-width="1" opacity="0.00392156862745098" d="M 88.5 178 L 87.5 180 L 80 183 L 80.5 185 L 84.5 184 L 84.5 185 L 81.5 185 L 65 193 Q 63.9 195.7 66.5 195 L 67.5 198 L 69.5 197 L 68.5 199 L 64 196.5 Q 66.3 195.3 63.5 194 L 62 194.5 L 62.5 196 L 60.5 196 L 52 200.5 L 53.5 203 L 57 205.5 L 54.5 204 L 51 201.5 Q 51.8 199.3 49.5 200 L 48.5 198 L 51.5 199 L 79 184.5 L 80.5 182 L 88.5 178 Z " /><path fill="rgb(0,0,0)" stroke="rgb(0,0,0)" stroke-width="1" opacity="0.00392156862745098" d="M 165.5 178 L 175 183.5 L 176.5 186 L 204.5 199 L 206 198.5 L 203 200 L 201.5 203 L 202 201.5 L 200.5 199 L 192.5 195 L 191 195.5 L 191.5 194 L 189 195.5 L 189.5 197 L 187.5 196 L 187.5 198 Q 184.5 196.5 187.5 195 Q 190.1 195.7 189 193 L 172.5 185 L 169 184.5 L 172.5 184 L 174 184.5 Q 174.8 182.3 172.5 183 L 166.5 180 L 165.5 178 Z " /><path fill="rgb(0,0,0)" stroke="rgb(0,0,0)" stroke-width="1" opacity="0.00392156862745098" d="M 198.5 178 L 207 185.5 L 208 194.5 L 207 194.5 L 207 187.5 L 200.5 180 L 198.5 178 Z " /><path fill="rgb(0,0,0)" stroke="rgb(0,0,0)" stroke-width="1" opacity="0.00392156862745098" d="M 95.5 180 L 94.5 182 L 91.5 183 L 91.5 182 L 95.5 180 Z " /><path fill="rgb(0,0,0)" stroke="rgb(0,0,0)" stroke-width="1" opacity="0.00392156862745098" d="M 158.5 180 L 163 182.5 L 161.5 183 L 158.5 180 Z " /><path fill="rgb(0,0,0)" stroke="rgb(0,0,0)" stroke-width="1" opacity="0.00392156862745098" d="M 87.5 183 L 90 183.5 L 87.5 184 L 87.5 183 Z " /><path fill="rgb(0,0,0)" stroke="rgb(0,0,0)" stroke-width="1" opacity="0.00392156862745098" d="M 117.5 183 L 118 184.5 L 112.5 193 L 113 191.5 L 117.5 183 Z " /><path fill="rgb(0,0,0)" stroke="rgb(0,0,0)" stroke-width="1" opacity="0.00392156862745098" d="M 136.5 183 L 140 189.5 L 138 188.5 L 136.5 183 Z " /><path fill="rgb(0,0,0)" stroke="rgb(0,0,0)" stroke-width="1" opacity="0.00392156862745098" d="M 164.5 183 L 167 183.5 L 164.5 184 L 164.5 183 Z " /><path fill="rgb(0,0,0)" stroke="rgb(0,0,0)" stroke-width="1" opacity="0.00392156862745098" d="M 140.5 191 L 153.5 206 L 156 207.5 L 154.5 207 L 144 197.5 L 140.5 191 Z " /><path fill="rgb(0,0,0)" stroke="rgb(0,0,0)" stroke-width="1" opacity="0.00392156862745098" d="M 46.5 192 L 47 194.5 L 46 194.5 L 46.5 192 Z " /><path fill="rgb(0,0,0)" stroke="rgb(0,0,0)" stroke-width="1" opacity="0.00392156862745098" d="M 111.5 194 L 110 196.5 L 101.5 206 L 109 197.5 L 111.5 194 Z " /><path fill="rgb(0,0,0)" stroke="rgb(0,0,0)" stroke-width="1" opacity="0.00392156862745098" d="M 184.5 197 L 185.5 199 L 184.5 197 Z " /><path fill="rgb(0,0,0)" stroke="rgb(0,0,0)" stroke-width="1" opacity="0.00392156862745098" d="M 71.5 198 L 73 198.5 L 70.5 200 L 71.5 198 Z " /><path fill="rgb(0,0,0)" stroke="rgb(0,0,0)" stroke-width="1" opacity="0.00392156862745098" d="M 181.5 198 L 184 199.5 L 182.5 200 L 181.5 198 Z " /><path fill="rgb(0,0,0)" stroke="rgb(0,0,0)" stroke-width="1" opacity="0.00392156862745098" d="M 74.5 199 L 76 199.5 L 72.5 201 L 72.5 200 L 74.5 199 Z " /><path fill="rgb(0,0,0)" stroke="rgb(0,0,0)" stroke-width="1" opacity="0.00392156862745098" d="M 87.5 199 L 91 200.5 L 89.5 201 L 87.5 199 Z " /><path fill="rgb(0,0,0)" stroke="rgb(0,0,0)" stroke-width="1" opacity="0.00392156862745098" d="M 164.5 199 L 166 199.5 L 163.5 201 L 164.5 199 Z " /><path fill="rgb(0,0,0)" stroke="rgb(0,0,0)" stroke-width="1" opacity="0.00392156862745098" d="M 178.5 199 L 181 200.5 L 179.5 201 L 178.5 199 Z " /><path fill="rgb(0,0,0)" stroke="rgb(0,0,0)" stroke-width="1" opacity="0.00392156862745098" d="M 79.5 200 L 88 201.5 L 76.5 202 L 76.5 201 L 79.5 200 Z " /><path fill="rgb(0,0,0)" stroke="rgb(0,0,0)" stroke-width="1" opacity="0.00392156862745098" d="M 170.5 200 L 178 201.5 L 166.5 202 L 166.5 201 L 170.5 200 Z " /><path fill="rgb(0,0,0)" stroke="rgb(0,0,0)" stroke-width="1" opacity="0.00392156862745098" d="M 199.5 203 L 197.5 206 L 187.5 211 L 187.5 210 L 199.5 203 Z " /><path fill="rgb(0,0,0)" stroke="rgb(0,0,0)" stroke-width="1" opacity="0.00392156862745098" d="M 58.5 206 L 67 210.5 L 65.5 211 L 59.5 208 L 58.5 206 Z " /><path fill="rgb(0,0,0)" stroke="rgb(0,0,0)" stroke-width="1" opacity="0.00392156862745098" d="M 99.5 206 L 98.5 208 L 99.5 206 Z " /><path fill="rgb(0,0,0)" stroke="rgb(0,0,0)" stroke-width="1" opacity="0.00392156862745098" d="M 96.5 208 L 95.5 210 L 92.5 211 L 92.5 210 L 96.5 208 Z " /><path fill="rgb(0,0,0)" stroke="rgb(0,0,0)" stroke-width="1" opacity="0.00392156862745098" d="M 157.5 208 L 162 210.5 L 160.5 211 L 157.5 208 Z " /><path fill="rgb(0,0,0)" stroke="rgb(0,0,0)" stroke-width="1" opacity="0.00392156862745098" d="M 71.5 212 L 75 212.5 L 71.5 213 L 71.5 212 Z " /><path fill="rgb(0,0,0)" stroke="rgb(0,0,0)" stroke-width="1" opacity="0.00392156862745098" d="M 85.5 212 L 88 212.5 L 85.5 213 L 85.5 212 Z " /><path fill="rgb(0,0,0)" stroke="rgb(0,0,0)" stroke-width="1" opacity="0.00392156862745098" d="M 166.5 212 L 169 212.5 L 166.5 213 L 166.5 212 Z " /><path fill="rgb(0,0,0)" stroke="rgb(0,0,0)" stroke-width="1" opacity="0.00392156862745098" d="M 179.5 212 L 183 212.5 L 179.5 213 L 179.5 212 Z " /><path fill="rgb(0,0,0)" stroke="rgb(0,0,0)" stroke-width="1" opacity="0" d="M 0 0 L 91.5 0 L 92 1.5 Q 79.3 14.3 71 31.5 L 67 43.5 L 67 59.5 L 72 72.5 L 92 97.5 L 86 92.5 Q 73.4 81.6 66.5 65 L 65 67.5 L 65 87.5 L 67 97.5 L 72 109.5 L 96 139.5 L 100 147.5 L 102 156.5 L 102 164.5 L 101 164.5 Q 101.9 150.1 92.5 146 L 88 142.5 Q 90.8 140.8 89 134.5 L 84.5 128 L 76.5 125 L 56.5 124 L 50 119.5 L 51 110.5 Q 48 106 40.5 106 L 33 111.5 L 32 121.5 L 38 132.5 L 21.5 136 Q 11.2 139.7 5 147.5 L 0.5 156 L 0 0 Z " /><path fill="rgb(0,0,0)" stroke="rgb(0,0,0)" stroke-width="1" opacity="0" d="M 95 0 L 158.5 0 Q 159.5 0 159 4.5 L 161 14.5 L 161 41.5 L 158 57.5 L 148 81.5 L 144.5 94 L 144 91 L 140 93.5 L 130 108.5 L 128 121.5 L 129 126.5 L 128 126.5 Q 128.7 123.9 126 125 L 125.5 127 L 124 108.5 Q 119.4 98.1 111.5 91 Q 108.9 90.2 110 93.5 L 109 93.5 L 107 84.5 Q 98.6 68.9 94 49.5 Q 95.5 44 93 42.5 L 93 13.5 L 94 12.5 Q 93.3 4.5 95 0 Z " /><path fill="rgb(0,0,0)" stroke="rgb(0,0,0)" stroke-width="1" opacity="0" d="M 161.5 0 L 254 0 L 254 156.5 L 253 156.5 Q 250.9 146.6 243.5 142 L 232.5 136 L 216 132.5 Q 222.5 127 222 114.5 L 216.5 107 L 210.5 106 L 203 109 L 204 119.5 L 197.5 124 L 176.5 125 Q 169.5 126.5 166 131.5 Q 163.3 135.3 165 143.5 L 163.5 145 L 155 152.5 Q 152.1 157.1 152.5 165 L 152 155.5 Q 153.5 146 158 139.5 L 178 115.5 L 186 100.5 L 189 86.5 L 189 68.5 L 187.5 64 L 181 77.5 L 162.5 98 L 166 93.5 L 184 68.5 Q 188.9 59.9 187 44.5 Q 184.3 31.7 178 22.5 L 161.5 0 Z " /><path fill="rgb(0,0,0)" stroke="rgb(0,0,0)" stroke-width="1" opacity="0" d="M 143.5 95 L 144 98.5 L 143 98.5 L 143.5 95 Z " /><path fill="rgb(0,0,0)" stroke="rgb(0,0,0)" stroke-width="1" opacity="0" d="M 110.5 96 L 111 98.5 L 110 98.5 L 110.5 96 Z " /><path fill="rgb(0,0,0)" stroke="rgb(0,0,0)" stroke-width="1" opacity="0" d="M 92.5 99 L 94.5 102 L 92.5 99 Z " /><path fill="rgb(0,0,0)" stroke="rgb(0,0,0)" stroke-width="1" opacity="0" d="M 161.5 99 L 159.5 102 L 161.5 99 Z " /><path fill="rgb(0,0,0)" stroke="rgb(0,0,0)" stroke-width="1" opacity="0" d="M 111.5 102 L 112 126.5 L 111 126.5 L 111.5 102 Z " /><path fill="rgb(0,0,0)" stroke="rgb(0,0,0)" stroke-width="1" opacity="0" d="M 142.5 102 L 143 106.5 L 142 106.5 L 142.5 102 Z " /><path fill="rgb(0,0,0)" stroke="rgb(0,0,0)" stroke-width="1" opacity="0" d="M 95.5 103 L 96.5 105 L 95.5 103 Z " /><path fill="rgb(0,0,0)" stroke="rgb(0,0,0)" stroke-width="1" opacity="0" d="M 158.5 103 L 157.5 105 L 158.5 103 Z " /><path fill="rgb(0,0,0)" stroke="rgb(0,0,0)" stroke-width="1" opacity="0" d="M 97.5 106 L 98.5 108 L 97.5 106 Z " /><path fill="rgb(0,0,0)" stroke="rgb(0,0,0)" stroke-width="1" opacity="0" d="M 156.5 106 L 155.5 108 L 156.5 106 Z " /><path fill="rgb(0,0,0)" stroke="rgb(0,0,0)" stroke-width="1" opacity="0" d="M 154.5 109 L 154 110.5 L 151.5 115 L 152 113.5 L 154.5 109 Z " /><path fill="rgb(0,0,0)" stroke="rgb(0,0,0)" stroke-width="1" opacity="0" d="M 100.5 111 L 102 113.5 L 101 113.5 L 100.5 111 Z " /><path fill="rgb(0,0,0)" stroke="rgb(0,0,0)" stroke-width="1" opacity="0" d="M 142.5 118 L 143 126.5 L 142 126.5 L 142.5 118 Z " /><path fill="rgb(0,0,0)" stroke="rgb(0,0,0)" stroke-width="1" opacity="0" d="M 110.5 128 L 111 135.5 L 109.5 144 Q 106.5 140.9 108 134 L 110 134 L 110.5 128 Z " /><path fill="rgb(0,0,0)" stroke="rgb(0,0,0)" stroke-width="1" opacity="0" d="M 143.5 129 L 144 134 Q 148 132.6 146 139.5 L 144.5 145 L 143.5 129 Z " /><path fill="rgb(0,0,0)" stroke="rgb(0,0,0)" stroke-width="1" opacity="0" d="M 126 140 Q 129.5 138.9 128 146.5 L 133 163.5 L 132 163.5 L 128.5 155 L 128 160.5 Q 131.4 176.1 138 188.5 Q 144.1 199.5 153.5 207 L 166.5 213 L 182.5 213 Q 195 209.5 203 201.5 Q 202.3 199.3 204.5 200 Q 209.4 196.9 208 187.5 L 200.5 179 L 183 169.5 L 194.5 168 L 206.5 159 L 217.5 154 L 232.5 154 L 254 162 L 254 300 L 138.5 300 L 138.5 299 Q 147.6 298.6 151 292.5 L 151 284.5 L 145 275 L 206.5 280 Q 208.2 277.3 214.5 279 L 221 275.5 L 220 273.5 L 222.5 275 Q 232.3 276.8 235 271.5 Q 235.8 266.8 232.5 266 L 222 263.5 L 225 263 Q 223.6 253.6 216.5 249 Q 211.5 246 202.5 247 L 201.5 248 L 183.5 249 L 163.5 253 L 147.5 260 L 141 266.5 Q 140.4 269.3 146.5 268 L 147.5 269 L 177.5 269 L 178.5 268 L 203.5 267 L 220.5 264 L 220.5 265 L 207.5 268 L 187.5 269 L 186.5 270 L 132 270 Q 130.7 266.7 135.5 268 L 139 265.5 L 140 261 L 152.5 254 L 172.5 248 L 184.5 247 L 185.5 246 L 194.5 246 L 195.5 245 L 208 245 L 195 228 Q 192.3 229.1 193 226.5 L 184 217.5 L 184 216 L 164.5 216 L 163.5 217 L 151.5 218 L 140.5 221 L 128.5 228 L 119.5 222 L 106.5 218 L 95.5 217 L 94.5 216 L 73.5 216 L 52 239.5 L 52 241 Q 49.3 239.9 50 242.5 L 49 245 L 72.5 246 L 94.5 250 Q 108.6 253.4 117 262.5 L 119.5 267 L 125 268.5 L 123.5 270 L 69.5 270 L 68.5 269 L 49.5 268 L 36 264.5 L 39.5 264 L 45.5 266 L 61.5 267 L 62.5 268 L 109.5 269 L 116 268 L 110.5 261 L 101.5 256 L 89.5 252 L 66.5 248 L 45.5 247 L 36 252.5 L 32 259.5 L 32 263 L 35 263.5 Q 25.9 263.4 22 268.5 Q 21.3 273.3 24.5 274 Q 27.7 276.3 34.5 275 L 37 273.5 L 36 275.5 L 42.5 279 L 56.5 280 L 57.5 279 L 70.5 279 L 80.5 277 L 112 275 L 107 282.5 L 106 292.5 Q 109.8 298.7 119 299.5 L 0 300 L 0 162.5 L 1.5 162 L 8.5 158 L 21.5 154 L 36.5 154 L 47.5 159 Q 52.9 165.6 61.5 169 L 70.5 169 L 72.5 168 L 72.5 169 L 53.5 179 L 47 185.5 L 46 194.5 L 49.5 200 Q 51.8 199.3 51 201.5 Q 59 209.5 71.5 213 L 87.5 213 Q 101.9 208.4 110 197.5 Q 122.9 181.1 126 156 Q 123 154.8 124 158.5 L 121.5 164 L 121 162.5 L 125 151.5 L 126 140 Z M 99 277 L 98 278 L 77 280 L 76 281 L 66 281 L 65 282 L 52 282 L 51 281 Q 45 279 46 283 L 56 289 L 65 291 Q 87 290 100 279 Q 101 276 99 277 Z M 158 277 L 156 279 L 175 288 L 188 291 Q 200 291 208 286 L 211 281 L 206 282 L 183 281 L 166 278 L 159 278 L 158 277 Z M 104 278 Q 94 287 80 291 Q 75 289 76 293 L 86 297 L 101 298 L 102 299 L 105 298 L 102 292 Q 100 283 104 281 L 104 278 Z M 153 279 L 155 284 L 155 292 L 153 299 L 156 298 L 172 297 L 181 293 Q 183 294 182 291 L 178 291 L 169 288 L 153 279 Z " /><path fill="rgb(0,0,0)" stroke="rgb(0,0,0)" stroke-width="1" opacity="0" d="M 108.5 148 L 109 151.5 L 108 151.5 L 108.5 148 Z " /><path fill="rgb(0,0,0)" stroke="rgb(0,0,0)" stroke-width="1" opacity="0" d="M 145.5 150 L 146 152.5 L 145 152.5 L 145.5 150 Z " /><path fill="rgb(0,0,0)" stroke="rgb(0,0,0)" stroke-width="1" opacity="0" d="M 107.5 159 L 108 161.5 L 107 161.5 L 107.5 159 Z " /><path fill="rgb(0,0,0)" stroke="rgb(0,0,0)" stroke-width="1" opacity="0" d="M 146.5 159 L 147 162.5 L 146 162.5 L 146.5 159 Z " /><path fill="rgb(0,0,0)" stroke="rgb(0,0,0)" stroke-width="1" opacity="0" d="M 106.5 164 L 109 165.5 L 105.5 170 L 105 168.5 L 106.5 164 Z " /><path fill="rgb(0,0,0)" stroke="rgb(0,0,0)" stroke-width="1" opacity="0" d="M 144.5 164 L 148 165 L 149 170.5 L 148 170.5 L 144.5 164 Z " /><path fill="rgb(0,0,0)" stroke="rgb(0,0,0)" stroke-width="1" opacity="0" d="M 100.5 166 L 101 170.5 L 99 175.5 L 100 176.5 L 96.5 180 L 90.5 183 L 80.5 185 L 80 183 Q 89.5 180.3 96 173.5 L 100.5 166 Z " /><path fill="rgb(0,0,0)" stroke="rgb(0,0,0)" stroke-width="1" opacity="0" d="M 153.5 166 L 160.5 176 L 174 183 L 173.5 185 L 163.5 183 L 154 176.5 L 153.5 166 Z " /><path fill="rgb(0,0,0)" stroke="rgb(0,0,0)" stroke-width="1" opacity="0" d="M 102.5 192 L 100.5 195 L 102.5 192 Z " /><path fill="rgb(0,0,0)" stroke="rgb(0,0,0)" stroke-width="1" opacity="0" d="M 152.5 193 L 153.5 195 L 152.5 193 Z " /><path fill="rgb(0,0,0)" stroke="rgb(0,0,0)" stroke-width="1" opacity="0" d="M 62.5 194 L 74 199.5 L 71.5 200 L 63.5 196 L 62.5 194 Z " /><path fill="rgb(0,0,0)" stroke="rgb(0,0,0)" stroke-width="1" opacity="0" d="M 190.5 194 L 192 194.5 L 183.5 199 L 183.5 198 L 190.5 194 Z " /><path fill="rgb(0,0,0)" stroke="rgb(0,0,0)" stroke-width="1" opacity="0" d="M 98.5 195 L 97.5 197 L 98.5 195 Z " /><path fill="rgb(0,0,0)" stroke="rgb(0,0,0)" stroke-width="1" opacity="0" d="M 75.5 200 L 79 200.5 L 75.5 201 L 75.5 200 Z " /><path fill="rgb(0,0,0)" stroke="rgb(0,0,0)" stroke-width="1" opacity="0" d="M 84.5 200 L 89 200.5 L 84.5 201 L 84.5 200 Z " /><path fill="rgb(0,0,0)" stroke="rgb(0,0,0)" stroke-width="1" opacity="0" d="M 165.5 200 L 170 200.5 L 165.5 201 L 165.5 200 Z " /><path fill="rgb(0,0,0)" stroke="rgb(0,0,0)" stroke-width="1" opacity="0" d="M 175.5 200 L 179 200.5 L 175.5 201 L 175.5 200 Z " /><path fill="rgb(17,147,117)" stroke="rgb(17,147,117)" stroke-width="1" opacity="0.07450980392156863" d="M 159.5 2 L 160 4.5 L 159 4.5 L 159.5 2 Z " /><path fill="rgb(17,147,117)" stroke="rgb(17,147,117)" stroke-width="1" opacity="0.07450980392156863" d="M 90.5 3 L 88.5 6 L 90.5 3 Z " /><path fill="rgb(17,147,117)" stroke="rgb(17,147,117)" stroke-width="1" opacity="0.07450980392156863" d="M 163.5 3 L 165.5 6 L 163.5 3 Z " /><path fill="rgb(17,147,117)" stroke="rgb(17,147,117)" stroke-width="1" opacity="0.07450980392156863" d="M 167.5 8 L 169.5 11 L 167.5 8 Z " /><path fill="rgb(17,147,117)" stroke="rgb(17,147,117)" stroke-width="1" opacity="0.07450980392156863" d="M 85.5 9 L 84.5 11 L 85.5 9 Z " /><path fill="rgb(17,147,117)" stroke="rgb(17,147,117)" stroke-width="1" opacity="0.07450980392156863" d="M 93.5 10 L 94 12.5 L 93 12.5 L 93.5 10 Z " /><path fill="rgb(17,147,117)" stroke="rgb(17,147,117)" stroke-width="1" opacity="0.07450980392156863" d="M 160.5 11 L 161 13.5 L 160 13.5 L 160.5 11 Z " /><path fill="rgb(17,147,117)" stroke="rgb(17,147,117)" stroke-width="1" opacity="0.07450980392156863" d="M 170.5 12 L 171.5 14 L 170.5 12 Z " /><path fill="rgb(17,147,117)" stroke="rgb(17,147,117)" stroke-width="1" opacity="0.07450980392156863" d="M 82.5 13 L 81.5 15 L 82.5 13 Z " /><path fill="rgb(17,147,117)" stroke="rgb(17,147,117)" stroke-width="1" opacity="0.07450980392156863" d="M 80.5 16 L 79.5 18 L 80.5 16 Z " /><path fill="rgb(17,147,117)" stroke="rgb(17,147,117)" stroke-width="1" opacity="0.07450980392156863" d="M 92.5 23 L 93 34.5 L 92 34.5 L 92.5 23 Z " /><path fill="rgb(17,147,117)" stroke="rgb(17,147,117)" stroke-width="1" opacity="0.07450980392156863" d="M 161.5 25 L 162 31.5 L 161 31.5 L 161.5 25 Z " /><path fill="rgb(17,147,117)" stroke="rgb(17,147,117)" stroke-width="1" opacity="0.07450980392156863" d="M 160.5 42 L 161 44.5 L 160 44.5 L 160.5 42 Z " /><path fill="rgb(17,147,117)" stroke="rgb(17,147,117)" stroke-width="1" opacity="0.07450980392156863" d="M 93.5 43 L 94 45.5 L 93 45.5 L 93.5 43 Z " /><path fill="rgb(17,147,117)" stroke="rgb(17,147,117)" stroke-width="1" opacity="0.07450980392156863" d="M 72.5 72 L 73.5 74 L 72.5 72 Z " /><path fill="rgb(17,147,117)" stroke="rgb(17,147,117)" stroke-width="1" opacity="0.07450980392156863" d="M 179.5 75 L 178.5 77 L 179.5 75 Z " /><path fill="rgb(17,147,117)" stroke="rgb(17,147,117)" stroke-width="1" opacity="0.07450980392156863" d="M 76.5 78 L 77.5 80 L 76.5 78 Z " /><path fill="rgb(17,147,117)" stroke="rgb(17,147,117)" stroke-width="1" opacity="0.07450980392156863" d="M 177.5 78 L 176.5 80 L 177.5 78 Z " /><path fill="rgb(17,147,117)" stroke="rgb(17,147,117)" stroke-width="1" opacity="0.07450980392156863" d="M 79.5 82 L 81.5 85 L 79.5 82 Z " /><path fill="rgb(17,147,117)" stroke="rgb(17,147,117)" stroke-width="1" opacity="0.07450980392156863" d="M 173.5 83 L 172.5 85 L 173.5 83 Z " /><path fill="rgb(17,147,117)" stroke="rgb(17,147,117)" stroke-width="1" opacity="0.07450980392156863" d="M 83.5 87 L 85.5 90 L 83.5 87 Z " /><path fill="rgb(17,147,117)" stroke="rgb(17,147,117)" stroke-width="1" opacity="0.07450980392156863" d="M 169.5 88 L 167.5 91 L 169.5 88 Z " /><path fill="rgb(17,147,117)" stroke="rgb(17,147,117)" stroke-width="1" opacity="0.07450980392156863" d="M 88.5 93 L 90.5 96 L 88.5 93 Z " /><path fill="rgb(17,147,117)" stroke="rgb(17,147,117)" stroke-width="1" opacity="0.07450980392156863" d="M 165.5 93 L 163.5 96 L 165.5 93 Z " /><path fill="rgb(17,147,117)" stroke="rgb(17,147,117)" stroke-width="1" opacity="0.07450980392156863" d="M 92.5 98 L 93.5 100 L 92.5 98 Z " /><path fill="rgb(17,147,117)" stroke="rgb(17,147,117)" stroke-width="1" opacity="0.07450980392156863" d="M 161.5 98 L 159.5 101 L 161.5 98 Z " /><path fill="rgb(17,147,117)" stroke="rgb(17,147,117)" stroke-width="1" opacity="0.07450980392156863" d="M 95.5 102 L 96.5 104 L 95.5 102 Z " /><path fill="rgb(17,147,117)" stroke="rgb(17,147,117)" stroke-width="1" opacity="0.07450980392156863" d="M 158.5 102 L 157.5 104 L 158.5 102 Z " /><path fill="rgb(17,147,117)" stroke="rgb(17,147,117)" stroke-width="1" opacity="0.07450980392156863" d="M 97.5 105 L 98.5 107 L 97.5 105 Z " /><path fill="rgb(17,147,117)" stroke="rgb(17,147,117)" stroke-width="1" opacity="0.07450980392156863" d="M 142.5 108 L 143 117.5 L 142 117.5 L 142.5 108 Z " /><path fill="rgb(17,147,117)" stroke="rgb(17,147,117)" stroke-width="1" opacity="0.07450980392156863" d="M 143.5 126 L 144 128.5 L 143 128.5 L 143.5 126 Z " /><path fill="rgb(17,147,117)" stroke="rgb(17,147,117)" stroke-width="1" opacity="0.07450980392156863" d="M 91.5 216 L 94 216.5 L 91.5 217 L 91.5 216 Z " /><path fill="rgb(17,147,117)" stroke="rgb(17,147,117)" stroke-width="1" opacity="0.07450980392156863" d="M 164.5 216 L 168 216.5 L 164.5 217 L 164.5 216 Z " /><path fill="rgb(17,147,117)" stroke="rgb(17,147,117)" stroke-width="1" opacity="0.07450980392156863" d="M 71.5 218 L 67.5 223 L 71.5 218 Z " /><path fill="rgb(17,147,117)" stroke="rgb(17,147,117)" stroke-width="1" opacity="0.07450980392156863" d="M 189.5 223 L 191.5 226 L 189.5 223 Z " /><path fill="rgb(17,147,117)" stroke="rgb(17,147,117)" stroke-width="1" opacity="0.07450980392156863" d="M 63.5 227 L 60.5 231 L 63.5 227 Z " /><path fill="rgb(17,147,117)" stroke="rgb(17,147,117)" stroke-width="1" opacity="0.07450980392156863" d="M 198.5 233 L 202.5 238 L 198.5 233 Z " /><path fill="rgb(17,147,117)" stroke="rgb(17,147,117)" stroke-width="1" opacity="0.07450980392156863" d="M 55.5 236 L 52.5 240 L 55.5 236 Z " /><path fill="rgb(17,147,117)" stroke="rgb(17,147,117)" stroke-width="1" opacity="0.07450980392156863" d="M 45.5 247 L 48 247.5 L 45.5 248 L 45.5 247 Z " /><path fill="rgb(17,147,117)" stroke="rgb(17,147,117)" stroke-width="1" opacity="0.07450980392156863" d="M 49.5 247 L 54 247.5 L 49.5 248 L 49.5 247 Z " /><path fill="rgb(17,147,117)" stroke="rgb(17,147,117)" stroke-width="1" opacity="0.07450980392156863" d="M 202.5 247 L 211 247.5 L 202.5 248 L 202.5 247 Z " /><path fill="rgb(17,147,117)" stroke="rgb(17,147,117)" stroke-width="1" opacity="0.07450980392156863" d="M 62.5 248 L 66 248.5 L 62.5 249 L 62.5 248 Z " /><path fill="rgb(17,147,117)" stroke="rgb(17,147,117)" stroke-width="1" opacity="0.07450980392156863" d="M 191.5 248 L 194 248.5 L 191.5 249 L 191.5 248 Z " /><path fill="rgb(17,147,117)" stroke="rgb(17,147,117)" stroke-width="1" opacity="0.07450980392156863" d="M 216.5 249 L 217.5 251 L 216.5 249 Z " /><path fill="rgb(17,147,117)" stroke="rgb(17,147,117)" stroke-width="1" opacity="0.07450980392156863" d="M 37.5 251 L 36.5 253 L 37.5 251 Z " /><path fill="rgb(17,147,117)" stroke="rgb(17,147,117)" stroke-width="1" opacity="0.07450980392156863" d="M 107.5 259 L 108.5 261 L 107.5 259 Z " /><path fill="rgb(17,147,117)" stroke="rgb(17,147,117)" stroke-width="1" opacity="0.07450980392156863" d="M 114.5 259 L 115.5 261 L 114.5 259 Z " /><path fill="rgb(17,147,117)" stroke="rgb(17,147,117)" stroke-width="1" opacity="0.07450980392156863" d="M 110.5 261 L 114.5 266 L 110.5 261 Z " /><path fill="rgb(17,147,117)" stroke="rgb(17,147,117)" stroke-width="1" opacity="0.07450980392156863" d="M 146.5 261 L 145.5 263 L 146.5 261 Z " /><path fill="rgb(17,147,117)" stroke="rgb(17,147,117)" stroke-width="1" opacity="0.07450980392156863" d="M 35.5 263 L 37 263.5 L 34.5 265 L 35.5 263 Z " /><path fill="rgb(17,147,117)" stroke="rgb(17,147,117)" stroke-width="1" opacity="0.07450980392156863" d="M 220.5 263 L 223 264.5 L 221.5 265 L 220.5 263 Z " /><path fill="rgb(17,147,117)" stroke="rgb(17,147,117)" stroke-width="1" opacity="0.07450980392156863" d="M 40.5 264 L 42 264.5 L 39.5 266 L 40.5 264 Z " /><path fill="rgb(17,147,117)" stroke="rgb(17,147,117)" stroke-width="1" opacity="0.07450980392156863" d="M 45.5 265 L 48 265.5 L 43.5 267 L 43.5 266 L 45.5 265 Z " /><path fill="rgb(17,147,117)" stroke="rgb(17,147,117)" stroke-width="1" opacity="0.07450980392156863" d="M 118.5 265 L 119.5 267 L 118.5 265 Z " /><path fill="rgb(17,147,117)" stroke="rgb(17,147,117)" stroke-width="1" opacity="0.07450980392156863" d="M 142.5 265 L 141.5 267 L 142.5 265 Z " /><path fill="rgb(17,147,117)" stroke="rgb(17,147,117)" stroke-width="1" opacity="0.07450980392156863" d="M 24.5 266 L 22.5 269 L 24.5 266 Z " /><path fill="rgb(17,147,117)" stroke="rgb(17,147,117)" stroke-width="1" opacity="0.07450980392156863" d="M 53.5 266 L 56 266.5 L 53.5 267 L 53.5 266 Z " /><path fill="rgb(17,147,117)" stroke="rgb(17,147,117)" stroke-width="1" opacity="0.07450980392156863" d="M 201.5 266 L 204 266.5 L 201.5 267 L 201.5 266 Z " /><path fill="rgb(17,147,117)" stroke="rgb(17,147,117)" stroke-width="1" opacity="0.07450980392156863" d="M 232.5 266 L 234.5 269 L 232.5 266 Z " /><path fill="rgb(17,147,117)" stroke="rgb(17,147,117)" stroke-width="1" opacity="0.07450980392156863" d="M 62.5 267 L 65 267.5 L 62.5 268 L 62.5 267 Z " /><path fill="rgb(17,147,117)" stroke="rgb(17,147,117)" stroke-width="1" opacity="0.07450980392156863" d="M 191.5 267 L 195 267.5 L 191.5 268 L 191.5 267 Z " /><path fill="rgb(17,147,117)" stroke="rgb(17,147,117)" stroke-width="1" opacity="0.07450980392156863" d="M 79.5 268 L 86 268.5 L 79.5 269 L 79.5 268 Z " /><path fill="rgb(17,147,117)" stroke="rgb(17,147,117)" stroke-width="1" opacity="0.07450980392156863" d="M 100.5 268 L 110 268.5 L 100.5 269 L 100.5 268 Z " /><path fill="rgb(17,147,117)" stroke="rgb(17,147,117)" stroke-width="1" opacity="0.07450980392156863" d="M 125.5 268 L 129.5 269 L 132 268 L 131.5 270 L 125 270 L 125.5 268 Z " /><path fill="rgb(17,147,117)" stroke="rgb(17,147,117)" stroke-width="1" opacity="0.07450980392156863" d="M 147.5 268 L 155 268.5 L 147.5 269 L 147.5 268 Z " /><path fill="rgb(17,147,117)" stroke="rgb(17,147,117)" stroke-width="1" opacity="0.07450980392156863" d="M 171.5 268 L 178 268.5 L 171.5 269 L 171.5 268 Z " /><path fill="rgb(17,147,117)" stroke="rgb(17,147,117)" stroke-width="1" opacity="0.07450980392156863" d="M 200.5 268 L 203 268.5 L 200.5 269 L 200.5 268 Z " /><path fill="rgb(17,147,117)" stroke="rgb(17,147,117)" stroke-width="1" opacity="0.07450980392156863" d="M 65.5 269 L 69 269.5 L 65.5 270 L 65.5 269 Z " /><path fill="rgb(17,147,117)" stroke="rgb(17,147,117)" stroke-width="1" opacity="0.07450980392156863" d="M 187.5 269 L 192 269.5 L 187.5 270 L 187.5 269 Z " /><path fill="rgb(17,147,117)" stroke="rgb(17,147,117)" stroke-width="1" opacity="0.07450980392156863" d="M 37.5 270 L 38 273 L 36 272.5 L 37.5 270 Z " /><path fill="rgb(17,147,117)" stroke="rgb(17,147,117)" stroke-width="1" opacity="0.07450980392156863" d="M 90.5 270 L 98 270.5 L 90.5 271 L 90.5 270 Z " /><path fill="rgb(17,147,117)" stroke="rgb(17,147,117)" stroke-width="1" opacity="0.07450980392156863" d="M 160.5 270 L 166 270.5 L 160.5 271 L 160.5 270 Z " /><path fill="rgb(17,147,117)" stroke="rgb(17,147,117)" stroke-width="1" opacity="0.07450980392156863" d="M 219.5 270 L 223 274.5 L 221 274.5 L 219.5 277 L 220 275.5 L 221 273.5 L 219 273 L 219.5 270 Z " /><path fill="rgb(17,147,117)" stroke="rgb(17,147,117)" stroke-width="1" opacity="0.07450980392156863" d="M 22.5 271 L 24.5 274 L 22.5 271 Z " /><path fill="rgb(17,147,117)" stroke="rgb(17,147,117)" stroke-width="1" opacity="0.07450980392156863" d="M 36.5 274 L 38 276.5 L 36 275.5 L 36.5 274 Z " /><path fill="rgb(17,147,117)" stroke="rgb(17,147,117)" stroke-width="1" opacity="0.07450980392156863" d="M 100.5 275 L 105 275.5 L 100.5 276 L 100.5 275 Z " /><path fill="rgb(17,147,117)" stroke="rgb(17,147,117)" stroke-width="1" opacity="0.07450980392156863" d="M 152.5 275 L 157 275.5 L 152.5 276 L 152.5 275 Z " /><path fill="rgb(17,147,117)" stroke="rgb(17,147,117)" stroke-width="1" opacity="0.07450980392156863" d="M 87.5 276 L 91 276.5 L 87.5 277 L 87.5 276 Z " /><path fill="rgb(17,147,117)" stroke="rgb(17,147,117)" stroke-width="1" opacity="0.07450980392156863" d="M 166.5 276 L 170 276.5 L 166.5 277 L 166.5 276 Z " /><path fill="rgb(17,147,117)" stroke="rgb(17,147,117)" stroke-width="1" opacity="0.07450980392156863" d="M 177.5 277 L 180 277.5 L 177.5 278 L 177.5 277 Z " /><path fill="rgb(17,147,117)" stroke="rgb(17,147,117)" stroke-width="1" opacity="0.07450980392156863" d="M 67.5 278 L 71 278.5 L 67.5 279 L 67.5 278 Z " /><path fill="rgb(17,147,117)" stroke="rgb(17,147,117)" stroke-width="1" opacity="0.07450980392156863" d="M 91.5 278 L 94 278.5 L 91.5 279 L 91.5 278 Z " /><path fill="rgb(17,147,117)" stroke="rgb(17,147,117)" stroke-width="1" opacity="0.07450980392156863" d="M 110.5 278 L 109.5 280 L 110.5 278 Z " /><path fill="rgb(17,147,117)" stroke="rgb(17,147,117)" stroke-width="1" opacity="0.07450980392156863" d="M 146.5 278 L 147.5 280 L 146.5 278 Z " /><path fill="rgb(17,147,117)" stroke="rgb(17,147,117)" stroke-width="1" opacity="0.07450980392156863" d="M 163.5 278 L 166 278.5 L 163.5 279 L 163.5 278 Z " /><path fill="rgb(17,147,117)" stroke="rgb(17,147,117)" stroke-width="1" opacity="0.07450980392156863" d="M 186.5 278 L 190 278.5 L 186.5 279 L 186.5 278 Z " /><path fill="rgb(17,147,117)" stroke="rgb(17,147,117)" stroke-width="1" opacity="0.07450980392156863" d="M 50.5 279 L 57 279.5 L 50.5 280 L 50.5 279 Z " /><path fill="rgb(17,147,117)" stroke="rgb(17,147,117)" stroke-width="1" opacity="0.07450980392156863" d="M 84.5 279 L 87 279.5 L 84.5 280 L 84.5 279 Z " /><path fill="rgb(17,147,117)" stroke="rgb(17,147,117)" stroke-width="1" opacity="0.07450980392156863" d="M 98.5 279 L 97.5 281 L 98.5 279 Z " /><path fill="rgb(17,147,117)" stroke="rgb(17,147,117)" stroke-width="1" opacity="0.07450980392156863" d="M 158.5 279 L 159.5 281 L 158.5 279 Z " /><path fill="rgb(17,147,117)" stroke="rgb(17,147,117)" stroke-width="1" opacity="0.07450980392156863" d="M 170.5 279 L 173 279.5 L 170.5 280 L 170.5 279 Z " /><path fill="rgb(17,147,117)" stroke="rgb(17,147,117)" stroke-width="1" opacity="0.07450980392156863" d="M 200.5 279 L 207 279.5 L 200.5 280 L 200.5 279 Z " /><path fill="rgb(17,147,117)" stroke="rgb(17,147,117)" stroke-width="1" opacity="0.07450980392156863" d="M 76.5 280 L 79 280.5 L 76.5 281 L 76.5 280 Z " /><path fill="rgb(17,147,117)" stroke="rgb(17,147,117)" stroke-width="1" opacity="0.07450980392156863" d="M 156.5 280 L 158.5 283 L 156.5 280 Z " /><path fill="rgb(17,147,117)" stroke="rgb(17,147,117)" stroke-width="1" opacity="0.07450980392156863" d="M 178.5 280 L 181 280.5 L 178.5 281 L 178.5 280 Z " /><path fill="rgb(17,147,117)" stroke="rgb(17,147,117)" stroke-width="1" opacity="0.07450980392156863" d="M 46 281 L 50 281.5 L 47 282.5 L 48.5 285 L 46 281 Z " /><path fill="rgb(17,147,117)" stroke="rgb(17,147,117)" stroke-width="1" opacity="0.07450980392156863" d="M 65.5 281 L 68 281.5 L 65.5 282 L 65.5 281 Z " /><path fill="rgb(17,147,117)" stroke="rgb(17,147,117)" stroke-width="1" opacity="0.07450980392156863" d="M 99.5 281 L 98.5 283 L 99.5 281 Z " /><path fill="rgb(17,147,117)" stroke="rgb(17,147,117)" stroke-width="1" opacity="0.07450980392156863" d="M 189.5 281 L 193 281.5 L 189.5 282 L 189.5 281 Z " /><path fill="rgb(17,147,117)" stroke="rgb(17,147,117)" stroke-width="1" opacity="0.07450980392156863" d="M 206.5 281 Q 211.9 279.1 211 282.5 L 208 284.5 L 209.5 282 Q 205.5 282.8 206.5 281 Z " /><path fill="rgb(17,147,117)" stroke="rgb(17,147,117)" stroke-width="1" opacity="0.07450980392156863" d="M 96.5 283 L 95.5 285 L 96.5 283 Z " /><path fill="rgb(17,147,117)" stroke="rgb(17,147,117)" stroke-width="1" opacity="0.07450980392156863" d="M 155.5 286 L 156 289.5 L 155 289.5 L 155.5 286 Z " /><path fill="rgb(17,147,117)" stroke="rgb(17,147,117)" stroke-width="1" opacity="0.07450980392156863" d="M 64.5 290 L 70 290.5 L 64.5 291 L 64.5 290 Z " /><path fill="rgb(17,147,117)" stroke="rgb(17,147,117)" stroke-width="1" opacity="0.07450980392156863" d="M 187.5 290 L 193 290.5 L 187.5 291 L 187.5 290 Z " /><path fill="rgb(17,147,117)" stroke="rgb(17,147,117)" stroke-width="1" opacity="0.07450980392156863" d="M 106.5 292 L 107.5 294 L 106.5 292 Z " /><path fill="rgb(17,147,117)" stroke="rgb(17,147,117)" stroke-width="1" opacity="0.07450980392156863" d="M 150.5 292 L 149.5 294 L 150.5 292 Z " /><path fill="rgb(17,147,117)" stroke="rgb(17,147,117)" stroke-width="1" opacity="0.07450980392156863" d="M 109.5 295 L 110.5 297 L 109.5 295 Z " /><path fill="rgb(17,147,117)" stroke="rgb(17,147,117)" stroke-width="1" opacity="0.07450980392156863" d="M 147.5 295 L 146.5 297 L 147.5 295 Z " /><path fill="rgb(17,147,117)" stroke="rgb(17,147,117)" stroke-width="1" opacity="0.07450980392156863" d="M 91.5 297 L 94 297.5 L 91.5 298 L 91.5 297 Z " /><path fill="rgb(17,147,117)" stroke="rgb(17,147,117)" stroke-width="1" opacity="0.07450980392156863" d="M 104.5 297 L 103.5 299 L 102 298.5 L 104.5 297 Z " /><path fill="rgb(17,147,117)" stroke="rgb(17,147,117)" stroke-width="1" opacity="0.07450980392156863" d="M 163.5 297 L 166 297.5 L 163.5 298 L 163.5 297 Z " /><path fill="rgb(237,29,37)" stroke="rgb(237,29,37)" stroke-width="1" opacity="0.44313725490196076" d="M 187.5 64 L 188 66.5 L 179 81.5 L 158 105.5 L 149.5 123 L 149 120.5 L 159 102.5 L 181 77.5 L 187.5 64 Z " /><path fill="rgb(237,29,37)" stroke="rgb(237,29,37)" stroke-width="1" opacity="0.44313725490196076" d="M 66.5 65 L 75 81 Q 77.7 79.9 77 82.5 L 97 105.5 L 105 122.5 L 104 122.5 L 98 108.5 L 71 76.5 L 66.5 65 Z " /><path fill="rgb(237,29,37)" stroke="rgb(237,29,37)" stroke-width="1" opacity="0.44313725490196076" d="M 65.5 67 L 66 87.5 L 65 87.5 L 65.5 67 Z " /><path fill="rgb(237,29,37)" stroke="rgb(237,29,37)" stroke-width="1" opacity="0.44313725490196076" d="M 188.5 68 L 189 86.5 L 188 86.5 L 188.5 68 Z " /><path fill="rgb(237,29,37)" stroke="rgb(237,29,37)" stroke-width="1" opacity="0.44313725490196076" d="M 187.5 88 L 188 92.5 L 187 92.5 L 187.5 88 Z " /><path fill="rgb(237,29,37)" stroke="rgb(237,29,37)" stroke-width="1" opacity="0.44313725490196076" d="M 66.5 89 L 68 96.5 L 67 96.5 L 66.5 89 Z " /><path fill="rgb(237,29,37)" stroke="rgb(237,29,37)" stroke-width="1" opacity="0.44313725490196076" d="M 186.5 94 L 187 96.5 L 186 96.5 L 186.5 94 Z " /><path fill="rgb(237,29,37)" stroke="rgb(237,29,37)" stroke-width="1" opacity="0.44313725490196076" d="M 68.5 98 L 71 104.5 L 70 104.5 Q 67 102 68.5 98 Z " /><path fill="rgb(237,29,37)" stroke="rgb(237,29,37)" stroke-width="1" opacity="0.44313725490196076" d="M 185.5 98 L 186 100.5 L 175 119.5 L 158 139.5 L 153.5 150 L 153 147.5 L 159 136.5 L 179 112.5 L 185.5 98 Z " /><path fill="rgb(237,29,37)" stroke="rgb(237,29,37)" stroke-width="1" opacity="0.44313725490196076" d="M 71.5 106 L 77 115.5 L 95 136.5 L 101 149.5 L 100 149.5 L 96 139.5 L 76 115.5 L 71 107.5 L 71.5 106 Z " /><path fill="rgb(237,29,37)" stroke="rgb(237,29,37)" stroke-width="1" opacity="0.44313725490196076" d="M 105.5 124 L 107 130.5 L 106 130.5 L 105.5 124 Z " /><path fill="rgb(237,29,37)" stroke="rgb(237,29,37)" stroke-width="1" opacity="0.44313725490196076" d="M 148.5 124 L 149 126.5 Q 146.3 130.8 146.5 138 L 146 131.5 L 148.5 124 Z " /><path fill="rgb(237,29,37)" stroke="rgb(237,29,37)" stroke-width="1" opacity="0.44313725490196076" d="M 107.5 132 L 108 138.5 L 107 138.5 L 107.5 132 Z " /><path fill="rgb(237,29,37)" stroke="rgb(237,29,37)" stroke-width="1" opacity="0.44313725490196076" d="M 145.5 140 L 146 149.5 L 145 149.5 L 145.5 140 Z " /><path fill="rgb(237,29,37)" stroke="rgb(237,29,37)" stroke-width="1" opacity="0.44313725490196076" d="M 108.5 142 L 109 146.5 L 108 146.5 L 108.5 142 Z " /><path fill="rgb(237,29,37)" stroke="rgb(237,29,37)" stroke-width="1" opacity="0.44313725490196076" d="M 101.5 151 L 102 154.5 L 101 154.5 L 101.5 151 Z " /><path fill="rgb(237,29,37)" stroke="rgb(237,29,37)" stroke-width="1" opacity="0.44313725490196076" d="M 107.5 151 L 108 158.5 L 105.5 168 L 105 164.5 Q 107.8 159.3 107.5 151 Z " /><path fill="rgb(237,29,37)" stroke="rgb(237,29,37)" stroke-width="1" opacity="0.44313725490196076" d="M 152.5 151 L 153 154.5 L 152 154.5 L 152.5 151 Z " /><path fill="rgb(237,29,37)" stroke="rgb(237,29,37)" stroke-width="1" opacity="0.44313725490196076" d="M 146.5 152 L 147 158.5 L 146 158.5 L 146.5 152 Z " /><path fill="rgb(237,29,37)" stroke="rgb(237,29,37)" stroke-width="1" opacity="0.44313725490196076" d="M 151.5 157 L 152 163.5 L 151 163.5 L 151.5 157 Z " /><path fill="rgb(237,29,37)" stroke="rgb(237,29,37)" stroke-width="1" opacity="0.44313725490196076" d="M 102.5 158 L 103 161.5 L 102 161.5 L 102.5 158 Z " /><path fill="rgb(237,29,37)" stroke="rgb(237,29,37)" stroke-width="1" opacity="0.44313725490196076" d="M 147.5 160 L 150 171.5 L 152.5 174 L 153.5 172 L 154 176 Q 151.3 177.1 152 174.5 Q 146.3 169.8 147.5 160 Z " /><path fill="rgb(237,29,37)" stroke="rgb(237,29,37)" stroke-width="1" opacity="0.44313725490196076" d="M 101.5 165 L 102 170.5 L 101 173.5 L 104 171.5 L 104.5 169 L 105 171.5 L 100 175.5 L 101.5 165 Z " /><path fill="rgb(237,29,37)" stroke="rgb(237,29,37)" stroke-width="1" opacity="0.44313725490196076" d="M 152.5 165 L 153 170.5 L 152 170.5 L 152.5 165 Z " /><path fill="rgb(235,41,34)" stroke="rgb(235,41,34)" stroke-width="1" opacity="0.996078431372549" d="M 66.5 66 L 71 76.5 L 93 101.5 L 103 118.5 L 107 131.5 L 108 150.5 L 107 151.5 L 107 158.5 L 105 168.5 L 101.5 174 L 101 171.5 L 102 170.5 L 103 158.5 L 101 147.5 L 97 139.5 L 77 115.5 L 69 100.5 L 66 88.5 L 66.5 66 Z " /><path fill="rgb(235,41,34)" stroke="rgb(235,41,34)" stroke-width="1" opacity="0.996078431372549" d="M 187.5 67 L 188 87.5 L 185 100.5 L 179 112.5 L 159 136.5 L 153 147.5 L 151 163.5 L 153 173.5 L 150 171.5 L 146 151.5 L 146 138.5 L 149 123.5 L 156 108.5 Q 165.9 93.4 179 81.5 L 187.5 67 Z " /><path fill="rgb(235,41,34)" stroke="rgb(235,41,34)" stroke-width="1" opacity="0.996078431372549" d="M 38.5 111 Q 45.3 109.3 47 112.5 Q 48.8 118.6 41.5 116 L 36 118 Q 34.8 112.5 38.5 111 Z " /><path fill="rgb(235,41,34)" stroke="rgb(235,41,34)" stroke-width="1" opacity="0.996078431372549" d="M 208.5 111 Q 215.3 109.3 217 112.5 L 218 118 Q 214.1 115.3 207 116 Q 206 112.2 208.5 111 Z " /><path fill="rgb(235,41,34)" stroke="rgb(235,41,34)" stroke-width="1" opacity="0.996078431372549" d="M 42.5 117 Q 47.3 116.3 48 119.5 L 48 122 L 42.5 122 L 39.5 129 Q 35.5 126.2 37 119 L 42.5 117 Z " /><path fill="rgb(235,41,34)" stroke="rgb(235,41,34)" stroke-width="1" opacity="0.996078431372549" d="M 208.5 117 L 217 119 Q 218.7 126.1 214.5 128 L 211.5 122 Q 203.7 124.4 206 118 L 208.5 117 Z " /><path fill="rgb(235,41,34)" stroke="rgb(235,41,34)" stroke-width="1" opacity="0.996078431372549" d="M 44.5 123 Q 48.3 122.3 49 124.5 L 49.5 127 L 52.5 125 L 62.5 127 L 64 128.5 L 63.5 130 L 54.5 130 L 53.5 131 L 44.5 131 Q 41.3 130.3 42 125.5 L 44.5 123 Z " /><path fill="rgb(235,41,34)" stroke="rgb(235,41,34)" stroke-width="1" opacity="0.996078431372549" d="M 206.5 123 Q 211.3 122.3 212 125.5 Q 212.8 130.3 209.5 131 L 190 130 Q 188.2 125.1 194.5 127 L 202.5 125 L 205 126.5 L 206.5 123 Z " /><path fill="rgb(235,41,34)" stroke="rgb(235,41,34)" stroke-width="1" opacity="0.996078431372549" d="M 36.5 135 L 39 135.5 L 36.5 136 L 36.5 135 Z " /><path fill="rgb(235,41,34)" stroke="rgb(235,41,34)" stroke-width="1" opacity="0.996078431372549" d="M 215.5 135 L 218 135.5 L 215.5 136 L 215.5 135 Z " /><path fill="rgb(235,41,34)" stroke="rgb(235,41,34)" stroke-width="1" opacity="0.996078431372549" d="M 29.5 145 L 32 145.5 L 29.5 146 L 29.5 145 Z " /><path fill="rgb(235,41,34)" stroke="rgb(235,41,34)" stroke-width="1" opacity="0.996078431372549" d="M 40.5 145 L 43 145.5 L 40.5 146 L 40.5 145 Z " /><path fill="rgb(235,41,34)" stroke="rgb(235,41,34)" stroke-width="1" opacity="0.996078431372549" d="M 211.5 145 L 214 145.5 L 211.5 146 L 211.5 145 Z " /><path fill="rgb(235,41,34)" stroke="rgb(235,41,34)" stroke-width="1" opacity="0.996078431372549" d="M 222.5 145 L 225 145.5 L 222.5 146 L 222.5 145 Z " /><path fill="rgb(235,41,34)" stroke="rgb(235,41,34)" stroke-width="1" opacity="0.996078431372549" d="M 242.5 145 L 243.5 147 L 242.5 145 Z " /><path fill="rgb(235,41,34)" stroke="rgb(235,41,34)" stroke-width="1" opacity="0.996078431372549" d="M 194.5 151 L 193.5 153 L 194.5 151 Z " /><path fill="rgb(2,139,119)" stroke="rgb(2,139,119)" stroke-width="1" opacity="0.396078431372549" d="M 93.5 0 Q 95.8 -0.8 95 1.5 L 91 2.5 L 93.5 0 Z " /><path fill="rgb(2,139,119)" stroke="rgb(2,139,119)" stroke-width="1" opacity="0.396078431372549" d="M 159 0 L 163 2.5 L 159 1.5 L 159 0 Z " /><path fill="rgb(2,139,119)" stroke="rgb(2,139,119)" stroke-width="1" opacity="0.396078431372549" d="M 165.5 6 L 166.5 8 L 165.5 6 Z " /><path fill="rgb(2,139,119)" stroke="rgb(2,139,119)" stroke-width="1" opacity="0.396078431372549" d="M 87.5 7 L 86.5 9 L 87.5 7 Z " /><path fill="rgb(2,139,119)" stroke="rgb(2,139,119)" stroke-width="1" opacity="0.396078431372549" d="M 93.5 7 L 94 9.5 L 93 9.5 L 93.5 7 Z " /><path fill="rgb(2,139,119)" stroke="rgb(2,139,119)" stroke-width="1" opacity="0.396078431372549" d="M 160.5 8 L 161 10.5 L 160 10.5 L 160.5 8 Z " /><path fill="rgb(2,139,119)" stroke="rgb(2,139,119)" stroke-width="1" opacity="0.396078431372549" d="M 84.5 11 L 83.5 13 L 84.5 11 Z " /><path fill="rgb(2,139,119)" stroke="rgb(2,139,119)" stroke-width="1" opacity="0.396078431372549" d="M 92.5 17 L 93 22.5 L 92 22.5 L 92.5 17 Z " /><path fill="rgb(2,139,119)" stroke="rgb(2,139,119)" stroke-width="1" opacity="0.396078431372549" d="M 161.5 18 L 162 24.5 L 161 24.5 L 161.5 18 Z " /><path fill="rgb(2,139,119)" stroke="rgb(2,139,119)" stroke-width="1" opacity="0.396078431372549" d="M 161.5 32 L 162 38.5 L 161 38.5 L 161.5 32 Z " /><path fill="rgb(2,139,119)" stroke="rgb(2,139,119)" stroke-width="1" opacity="0.396078431372549" d="M 92.5 35 L 93 39.5 L 92 39.5 L 92.5 35 Z " /><path fill="rgb(2,139,119)" stroke="rgb(2,139,119)" stroke-width="1" opacity="0.396078431372549" d="M 67.5 45 L 68 47.5 L 67 47.5 L 67.5 45 Z " /><path fill="rgb(2,139,119)" stroke="rgb(2,139,119)" stroke-width="1" opacity="0.396078431372549" d="M 186.5 46 L 187 48.5 L 186 48.5 L 186.5 46 Z " /><path fill="rgb(2,139,119)" stroke="rgb(2,139,119)" stroke-width="1" opacity="0.396078431372549" d="M 186.5 55 L 187 57.5 L 186 57.5 L 186.5 55 Z " /><path fill="rgb(2,139,119)" stroke="rgb(2,139,119)" stroke-width="1" opacity="0.396078431372549" d="M 67.5 56 L 68 58.5 L 67 58.5 L 67.5 56 Z " /><path fill="rgb(2,139,119)" stroke="rgb(2,139,119)" stroke-width="1" opacity="0.396078431372549" d="M 75.5 76 L 76.5 78 L 75.5 76 Z " /><path fill="rgb(2,139,119)" stroke="rgb(2,139,119)" stroke-width="1" opacity="0.396078431372549" d="M 78.5 80 L 79.5 82 L 78.5 80 Z " /><path fill="rgb(2,139,119)" stroke="rgb(2,139,119)" stroke-width="1" opacity="0.396078431372549" d="M 175.5 80 L 174.5 82 L 175.5 80 Z " /><path fill="rgb(2,139,119)" stroke="rgb(2,139,119)" stroke-width="1" opacity="0.396078431372549" d="M 82.5 85 L 83.5 87 L 82.5 85 Z " /><path fill="rgb(2,139,119)" stroke="rgb(2,139,119)" stroke-width="1" opacity="0.396078431372549" d="M 171.5 85 L 170.5 87 L 171.5 85 Z " /><path fill="rgb(2,139,119)" stroke="rgb(2,139,119)" stroke-width="1" opacity="0.396078431372549" d="M 86.5 90 L 88.5 93 L 86.5 90 Z " /><path fill="rgb(2,139,119)" stroke="rgb(2,139,119)" stroke-width="1" opacity="0.396078431372549" d="M 166.5 91 L 165.5 93 L 166.5 91 Z " /><path fill="rgb(2,139,119)" stroke="rgb(2,139,119)" stroke-width="1" opacity="0.396078431372549" d="M 91.5 96 L 92.5 98 L 91.5 96 Z " /><path fill="rgb(2,139,119)" stroke="rgb(2,139,119)" stroke-width="1" opacity="0.396078431372549" d="M 162.5 96 L 161.5 98 L 162.5 96 Z " /><path fill="rgb(2,139,119)" stroke="rgb(2,139,119)" stroke-width="1" opacity="0.396078431372549" d="M 94.5 100 L 95.5 102 L 94.5 100 Z " /><path fill="rgb(2,139,119)" stroke="rgb(2,139,119)" stroke-width="1" opacity="0.396078431372549" d="M 110.5 101 L 111 103.5 L 110 103.5 L 110.5 101 Z " /><path fill="rgb(2,139,119)" stroke="rgb(2,139,119)" stroke-width="1" opacity="0.396078431372549" d="M 110.5 122 L 111 125.5 L 110 125.5 L 110.5 122 Z " /><path fill="rgb(2,139,119)" stroke="rgb(2,139,119)" stroke-width="1" opacity="0.396078431372549" d="M 143.5 123 L 144 125.5 L 143 125.5 L 143.5 123 Z " /><path fill="rgb(2,139,119)" stroke="rgb(2,139,119)" stroke-width="1" opacity="0.396078431372549" d="M 109.5 130 L 110 133 L 108 132.5 L 109.5 130 Z " /><path fill="rgb(2,139,119)" stroke="rgb(2,139,119)" stroke-width="1" opacity="0.396078431372549" d="M 144 131 Q 147 130 146 133 Q 143 134 144 131 Z " /><path fill="rgb(2,139,119)" stroke="rgb(2,139,119)" stroke-width="1" opacity="0.396078431372549" d="M 59.5 248 L 62 248.5 L 59.5 249 L 59.5 248 Z " /><path fill="rgb(2,139,119)" stroke="rgb(2,139,119)" stroke-width="1" opacity="0.396078431372549" d="M 194.5 248 L 198 248.5 L 194.5 249 L 194.5 248 Z " /><path fill="rgb(2,139,119)" stroke="rgb(2,139,119)" stroke-width="1" opacity="0.396078431372549" d="M 69.5 249 L 72 249.5 L 69.5 250 L 69.5 249 Z " /><path fill="rgb(2,139,119)" stroke="rgb(2,139,119)" stroke-width="1" opacity="0.396078431372549" d="M 185.5 249 L 188 249.5 L 185.5 250 L 185.5 249 Z " /><path fill="rgb(2,139,119)" stroke="rgb(2,139,119)" stroke-width="1" opacity="0.396078431372549" d="M 218.5 251 L 220.5 254 L 218.5 251 Z " /><path fill="rgb(2,139,119)" stroke="rgb(2,139,119)" stroke-width="1" opacity="0.396078431372549" d="M 36.5 253 L 35.5 255 L 36.5 253 Z " /><path fill="rgb(2,139,119)" stroke="rgb(2,139,119)" stroke-width="1" opacity="0.396078431372549" d="M 32.5 261 L 33.5 263 L 32.5 261 Z " /><path fill="rgb(2,139,119)" stroke="rgb(2,139,119)" stroke-width="1" opacity="0.396078431372549" d="M 144.5 263 L 143.5 265 L 144.5 263 Z " /><path fill="rgb(2,139,119)" stroke="rgb(2,139,119)" stroke-width="1" opacity="0.396078431372549" d="M 31.5 264 L 34 264.5 L 31.5 265 L 31.5 264 Z " /><path fill="rgb(2,139,119)" stroke="rgb(2,139,119)" stroke-width="1" opacity="0.396078431372549" d="M 223.5 264 L 227 264.5 L 223.5 265 L 223.5 264 Z " /><path fill="rgb(2,139,119)" stroke="rgb(2,139,119)" stroke-width="1" opacity="0.396078431372549" d="M 56.5 266 L 59 266.5 L 56.5 267 L 56.5 266 Z " /><path fill="rgb(2,139,119)" stroke="rgb(2,139,119)" stroke-width="1" opacity="0.396078431372549" d="M 198.5 266 L 201 266.5 L 198.5 267 L 198.5 266 Z " /><path fill="rgb(2,139,119)" stroke="rgb(2,139,119)" stroke-width="1" opacity="0.396078431372549" d="M 65.5 267 L 70 267.5 L 65.5 268 L 65.5 267 Z " /><path fill="rgb(2,139,119)" stroke="rgb(2,139,119)" stroke-width="1" opacity="0.396078431372549" d="M 186.5 267 L 191 267.5 L 186.5 268 L 186.5 267 Z " /><path fill="rgb(2,139,119)" stroke="rgb(2,139,119)" stroke-width="1" opacity="0.396078431372549" d="M 52.5 268 L 55 268.5 L 52.5 269 L 52.5 268 Z " /><path fill="rgb(2,139,119)" stroke="rgb(2,139,119)" stroke-width="1" opacity="0.396078431372549" d="M 86.5 268 L 100 268.5 L 86.5 269 L 86.5 268 Z " /><path fill="rgb(2,139,119)" stroke="rgb(2,139,119)" stroke-width="1" opacity="0.396078431372549" d="M 155.5 268 L 171 268.5 L 155.5 269 L 155.5 268 Z " /><path fill="rgb(2,139,119)" stroke="rgb(2,139,119)" stroke-width="1" opacity="0.396078431372549" d="M 60.5 269 L 65 269.5 L 60.5 270 L 60.5 269 Z " /><path fill="rgb(2,139,119)" stroke="rgb(2,139,119)" stroke-width="1" opacity="0.396078431372549" d="M 192.5 269 L 197 269.5 L 192.5 270 L 192.5 269 Z " /><path fill="rgb(2,139,119)" stroke="rgb(2,139,119)" stroke-width="1" opacity="0.396078431372549" d="M 220.5 269 L 221 271.5 L 220 271.5 L 220.5 269 Z " /><path fill="rgb(2,139,119)" stroke="rgb(2,139,119)" stroke-width="1" opacity="0.396078431372549" d="M 76.5 270 L 90 270.5 L 76.5 271 L 76.5 270 Z " /><path fill="rgb(2,139,119)" stroke="rgb(2,139,119)" stroke-width="1" opacity="0.396078431372549" d="M 98.5 270 L 115 270.5 L 98.5 271 L 98.5 270 Z " /><path fill="rgb(2,139,119)" stroke="rgb(2,139,119)" stroke-width="1" opacity="0.396078431372549" d="M 143.5 270 L 160 270.5 L 143.5 271 L 143.5 270 Z " /><path fill="rgb(2,139,119)" stroke="rgb(2,139,119)" stroke-width="1" opacity="0.396078431372549" d="M 166.5 270 L 180 270.5 L 166.5 271 L 166.5 270 Z " /><path fill="rgb(2,139,119)" stroke="rgb(2,139,119)" stroke-width="1" opacity="0.396078431372549" d="M 95.5 275 L 100 275.5 L 95.5 276 L 95.5 275 Z " /><path fill="rgb(2,139,119)" stroke="rgb(2,139,119)" stroke-width="1" opacity="0.396078431372549" d="M 113.5 275 L 111.5 278 L 113.5 275 Z " /><path fill="rgb(2,139,119)" stroke="rgb(2,139,119)" stroke-width="1" opacity="0.396078431372549" d="M 143.5 275 L 145.5 278 L 143.5 275 Z " /><path fill="rgb(2,139,119)" stroke="rgb(2,139,119)" stroke-width="1" opacity="0.396078431372549" d="M 157.5 275 L 162 275.5 L 157.5 276 L 157.5 275 Z " /><path fill="rgb(2,139,119)" stroke="rgb(2,139,119)" stroke-width="1" opacity="0.396078431372549" d="M 84.5 276 L 87 276.5 L 84.5 277 L 84.5 276 Z " /><path fill="rgb(2,139,119)" stroke="rgb(2,139,119)" stroke-width="1" opacity="0.396078431372549" d="M 170.5 276 L 173 276.5 L 170.5 277 L 170.5 276 Z " /><path fill="rgb(2,139,119)" stroke="rgb(2,139,119)" stroke-width="1" opacity="0.396078431372549" d="M 74.5 277 L 78 277.5 L 74.5 278 L 74.5 277 Z " /><path fill="rgb(2,139,119)" stroke="rgb(2,139,119)" stroke-width="1" opacity="0.396078431372549" d="M 180.5 277 L 183 277.5 L 180.5 278 L 180.5 277 Z " /><path fill="rgb(2,139,119)" stroke="rgb(2,139,119)" stroke-width="1" opacity="0.396078431372549" d="M 63.5 278 L 67 278.5 L 63.5 279 L 63.5 278 Z " /><path fill="rgb(2,139,119)" stroke="rgb(2,139,119)" stroke-width="1" opacity="0.396078431372549" d="M 190.5 278 L 195 278.5 L 190.5 279 L 190.5 278 Z " /><path fill="rgb(2,139,119)" stroke="rgb(2,139,119)" stroke-width="1" opacity="0.396078431372549" d="M 102.5 279 L 104 279.5 L 102 280.5 L 102.5 282 Q 99.5 280.5 102.5 279 Z " /><path fill="rgb(2,139,119)" stroke="rgb(2,139,119)" stroke-width="1" opacity="0.396078431372549" d="M 154.5 279 Q 157.5 280.5 154.5 282 L 154.5 279 Z " /><path fill="rgb(2,139,119)" stroke="rgb(2,139,119)" stroke-width="1" opacity="0.396078431372549" d="M 79.5 280 L 82 280.5 L 79.5 281 L 79.5 280 Z " /><path fill="rgb(2,139,119)" stroke="rgb(2,139,119)" stroke-width="1" opacity="0.396078431372549" d="M 175.5 280 L 178 280.5 L 175.5 281 L 175.5 280 Z " /><path fill="rgb(2,139,119)" stroke="rgb(2,139,119)" stroke-width="1" opacity="0.396078431372549" d="M 68.5 281 L 73 281.5 L 68.5 282 L 68.5 281 Z " /><path fill="rgb(2,139,119)" stroke="rgb(2,139,119)" stroke-width="1" opacity="0.396078431372549" d="M 184.5 281 L 189 281.5 L 184.5 282 L 184.5 281 Z " /><path fill="rgb(2,139,119)" stroke="rgb(2,139,119)" stroke-width="1" opacity="0.396078431372549" d="M 101.5 284 L 102 286.5 L 101 286.5 L 101.5 284 Z " /><path fill="rgb(2,139,119)" stroke="rgb(2,139,119)" stroke-width="1" opacity="0.396078431372549" d="M 77.5 291 L 79 291.5 L 76.5 293 L 77.5 291 Z " /><path fill="rgb(2,139,119)" stroke="rgb(2,139,119)" stroke-width="1" opacity="0.396078431372549" d="M 178.5 291 L 181 292.5 L 179.5 292 L 178.5 291 Z " /><path fill="rgb(2,139,119)" stroke="rgb(2,139,119)" stroke-width="1" opacity="0.396078431372549" d="M 94.5 297 L 97 297.5 L 94.5 298 L 94.5 297 Z " /><path fill="rgb(2,139,119)" stroke="rgb(2,139,119)" stroke-width="1" opacity="0.396078431372549" d="M 160.5 297 L 163 297.5 L 160.5 298 L 160.5 297 Z " /><path fill="rgb(2,139,119)" stroke="rgb(2,139,119)" stroke-width="1" opacity="0.396078431372549" d="M 133.5 299 L 136 299.5 L 133.5 300 L 133.5 299 Z " /><path fill="rgb(3,99,170)" stroke="rgb(3,99,170)" stroke-width="1" opacity="0.9921568627450981" d="M 93.5 1 L 94 6.5 L 92 17.5 L 92 39.5 L 95 56.5 L 106 83.5 L 110 97.5 L 111 121.5 Q 108.2 123.3 110 129.5 L 108.5 132 Q 106.5 117.5 100 107.5 L 77 78.5 L 69 64.5 L 67 55.5 L 67 48.5 L 71 33.5 L 75 25.5 Q 82.2 11.2 93.5 1 Z " /><path fill="rgb(3,99,170)" stroke="rgb(3,99,170)" stroke-width="1" opacity="0.9921568627450981" d="M 160.5 1 Q 173.6 13.9 182 31.5 L 186 42.5 L 187 54.5 Q 184.7 55.7 186 60.5 L 181 72.5 L 154 107.5 L 148 119.5 L 146 131 L 144 130.5 L 144 123.5 L 143 122.5 L 143 103.5 L 145 92.5 L 155 68.5 L 160 52.5 L 161 39.5 L 162 38.5 L 162 18.5 L 161 17.5 L 160.5 1 Z " /><path fill="rgb(3,99,170)" stroke="rgb(3,99,170)" stroke-width="1" opacity="0.9921568627450981" d="M 66.5 137 L 67 139.5 L 66 139.5 L 66.5 137 Z " /><path fill="rgb(3,99,170)" stroke="rgb(3,99,170)" stroke-width="1" opacity="0.9921568627450981" d="M 85.5 140 L 84.5 142 L 85.5 140 Z " /><path fill="rgb(3,99,170)" stroke="rgb(3,99,170)" stroke-width="1" opacity="0.9921568627450981" d="M 63.5 142 L 61.5 145 L 63.5 142 Z " /><path fill="rgb(3,99,170)" stroke="rgb(3,99,170)" stroke-width="1" opacity="0.9921568627450981" d="M 177.5 145 L 180 145.5 L 177.5 146 L 177.5 145 Z " /><path fill="rgb(3,99,170)" stroke="rgb(3,99,170)" stroke-width="1" opacity="0.9921568627450981" d="M 70.5 152 L 71 154.5 L 70 154.5 L 70.5 152 Z " /><path fill="rgb(3,99,170)" stroke="rgb(3,99,170)" stroke-width="1" opacity="0.9921568627450981" d="M 68.5 158 L 69.5 160 L 68.5 158 Z " /><path fill="rgb(3,99,170)" stroke="rgb(3,99,170)" stroke-width="1" opacity="0.9921568627450981" d="M 185.5 158 L 184.5 160 L 185.5 158 Z " /><path fill="rgb(3,99,170)" stroke="rgb(3,99,170)" stroke-width="1" opacity="0.9921568627450981" d="M 81.5 164 L 80.5 166 L 81.5 164 Z " /><path fill="rgb(3,99,170)" stroke="rgb(3,99,170)" stroke-width="1" opacity="0.9921568627450981" d="M 87.5 164 L 85.5 167 L 87.5 164 Z " /><path fill="rgb(3,99,170)" stroke="rgb(3,99,170)" stroke-width="1" opacity="0.9921568627450981" d="M 182.5 176 L 183.5 178 L 182.5 176 Z " /><path fill="rgb(1,0,0)" stroke="rgb(1,0,0)" stroke-width="1" opacity="0.9725490196078431" d="M 111.5 92 L 122 105.5 L 125 114.5 L 125 124.5 L 122 136.5 L 123 136.5 L 126 126 Q 129 124.8 128 128.5 L 132.5 140 L 133 137.5 L 129 124.5 L 129 114.5 Q 132.4 99.9 142.5 92 L 143 96.5 L 141 105.5 L 141 123.5 L 142 124.5 L 142 132.5 L 143 133.5 L 146 163.5 L 144 162.5 L 135.5 145 L 135 147.5 L 145 167.5 L 156.5 180 Q 162.2 184.8 172.5 185 L 189 193 Q 190.1 195.7 187.5 195 Q 181.3 201.8 166.5 200 Q 154.3 196.3 147 187.5 Q 138.7 178.3 134 165.5 L 129 148.5 L 128 135.5 L 126.5 134 Q 123.9 171.4 103.5 191 L 90.5 199 L 76.5 200 L 65 195 Q 63.9 192.3 66.5 193 L 81.5 185 L 94.5 182 L 106 171.5 Q 114.5 160.5 119 145.5 L 118 145.5 L 108.5 164 L 108 158.5 L 109 157.5 L 109 148.5 L 112 131.5 L 112 123.5 L 113 122.5 L 113 106.5 L 111 97.5 L 111.5 92 Z M 122 137 L 121 140 L 122 140 L 122 137 Z M 121 140 L 119 143 L 120 145 L 121 143 L 121 140 Z M 134 140 L 134 145 L 135 145 L 134 140 Z " /><path fill="rgb(1,0,0)" stroke="rgb(1,0,0)" stroke-width="1" opacity="0.9725490196078431" d="M 39.5 107 Q 48.4 106.1 51 111.5 L 49 118.5 L 52.5 123 L 58.5 125 L 72 125.5 L 67 128.5 L 66 130.5 L 67.5 134 L 73.5 126 Q 83.5 125.5 87 131.5 L 89 137.5 Q 86.8 138.8 88 143.5 L 98 152.5 L 101 162.5 Q 99.6 170.1 94.5 174 L 79 183.5 L 77.5 186 L 49.5 199 Q 46.3 196.3 46 190.5 Q 47.8 183.3 53.5 180 L 75 167.5 L 72.5 167 Q 70.2 169.7 64.5 169 L 58.5 167 L 42 155.5 L 43.5 155 L 57.5 163 Q 61.9 160.9 62 154.5 L 60 151 L 48.5 146 L 29.5 145 L 16.5 148 L 9.5 152 L 10.5 150 Q 17.4 144.9 27.5 143 L 43.5 143 L 50 144 Q 49 140.2 51.5 139 L 55 140.5 Q 55.8 142.8 53.5 142 Q 52.3 139.8 51 142.5 Q 51.8 145.8 56.5 145 L 58 141.5 Q 52.2 133.3 36.5 135 L 17.5 141 L 6 150.5 L 4 153.5 L 5.5 154 L 8 152.5 L 4.5 157 L 21.5 152 L 32.5 152 L 32.5 153 L 24.5 153 L 15.5 155 L 0 161 Q 2 148.4 11.5 142 L 23.5 136 L 31.5 134 L 37.5 134 L 39 132.5 Q 31.3 127.7 33 113.5 L 37.5 108 L 39.5 107 Z M 39 111 Q 35 113 36 118 L 42 116 Q 49 119 47 113 Q 45 109 39 111 Z M 43 117 L 37 119 Q 36 126 40 129 L 43 122 L 48 122 L 48 120 Q 47 116 43 117 Z M 45 123 L 42 126 Q 41 130 45 131 L 52 131 L 52 133 Q 60 133 64 139 Q 65 144 61 145 L 63 145 L 67 140 L 66 136 Q 64 130 55 131 L 55 130 L 64 130 L 64 129 L 63 127 L 53 125 L 48 128 L 48 127 Q 50 128 49 125 Q 48 122 45 123 Z M 74 129 L 71 133 L 71 139 L 73 142 L 76 143 L 85 142 L 87 139 L 86 132 L 83 130 L 84 139 L 81 141 L 77 140 L 74 137 L 76 134 L 76 137 L 79 138 L 81 137 L 82 135 L 81 132 Q 80 128 74 129 Z M 75 145 L 67 151 L 68 159 L 72 161 L 76 160 Q 80 160 79 155 L 76 153 L 76 154 Q 78 153 77 156 L 75 157 L 71 156 Q 70 150 74 149 Q 80 148 81 153 Q 82 160 78 163 L 78 164 L 81 166 L 83 164 L 86 156 L 84 150 L 78 145 L 75 145 Z M 89 147 L 90 151 Q 92 159 89 163 L 67 181 L 68 182 L 87 171 Q 92 168 94 161 L 93 150 L 89 147 Z " /><path fill="rgb(1,0,0)" stroke="rgb(1,0,0)" stroke-width="1" opacity="0.9725490196078431" d="M 209.5 107 Q 218.1 105.9 220 111.5 Q 222.5 115 221 122.5 L 215 132.5 L 216.5 134 L 222.5 134 L 235.5 138 L 248 147.5 L 254 161 L 238.5 155 L 220 152.5 L 232.5 152 L 249.5 157 L 246.5 152 L 249.5 154 L 248 151.5 L 242.5 145 Q 234.8 138.8 223.5 136 L 207.5 135 L 200.5 137 L 196 141.5 L 197.5 145 Q 202.3 145.8 203 142.5 Q 201.8 139.8 200.5 142 Q 198.3 142.8 199 140.5 L 203 139 L 204 144 L 210.5 143 L 226.5 143 Q 237.9 145.1 245 151.5 L 243.5 151 Q 231.8 143.7 211.5 145 L 199.5 148 L 193 152.5 L 192 157.5 L 196.5 163 L 211.5 155 L 211.5 156 L 198.5 165 L 189.5 169 L 185.5 169 L 179.5 167 L 181.5 170 L 197.5 178 L 206 185.5 Q 208.3 188.7 207 195.5 L 204.5 199 L 175 184.5 L 173.5 182 Q 163.9 179.1 158 172.5 Q 153 168.5 153 159.5 Q 155.4 150.4 162.5 146 L 166 143.5 L 165 136.5 L 166 132.5 L 170.5 128 Q 173.8 125.3 180.5 126 L 186.5 134 L 187 128.5 L 182 125.5 L 195.5 125 L 201.5 123 L 204 120.5 L 205 116.5 L 203 111.5 L 209.5 107 Z M 209 111 Q 206 112 207 116 Q 214 115 218 118 L 217 113 Q 215 109 209 111 Z M 209 117 L 206 118 Q 204 124 212 122 L 215 128 Q 219 126 217 119 L 209 117 Z M 207 123 L 205 125 Q 204 128 207 127 L 207 128 L 203 125 L 195 127 Q 188 125 190 130 L 200 131 L 192 132 L 187 138 L 187 141 L 189 144 L 192 145 L 193 145 Q 189 144 190 139 L 199 133 L 202 133 L 201 132 L 210 131 Q 213 130 212 126 Q 211 122 207 123 Z M 171 129 L 167 134 L 168 141 L 172 143 Q 181 145 183 139 Q 184 132 182 130 L 176 129 L 172 134 L 173 137 L 176 138 L 178 137 L 179 134 L 180 137 L 179 139 L 176 141 L 170 139 Q 169 133 171 132 L 171 129 Z M 177 145 L 173 147 L 168 155 Q 169 162 174 166 L 177 164 Q 172 161 173 153 L 178 149 Q 182 148 183 152 Q 184 156 182 157 L 179 156 Q 176 157 177 154 L 179 154 L 177 153 L 175 157 L 182 161 L 185 160 L 187 157 L 186 150 Q 184 145 177 145 Z M 164 147 L 160 152 Q 158 161 162 166 L 168 171 L 187 182 L 187 181 Q 181 173 172 169 L 164 161 L 164 151 L 165 150 Q 166 146 164 147 Z " /><path fill="rgb(1,0,0)" stroke="rgb(1,0,0)" stroke-width="1" opacity="0.9725490196078431" d="M 35.5 153 L 38 153.5 L 35.5 154 L 35.5 153 Z " /><path fill="rgb(1,0,0)" stroke="rgb(1,0,0)" stroke-width="1" opacity="0.9725490196078431" d="M 216.5 153 L 219 153.5 L 216.5 154 L 216.5 153 Z " /><path fill="rgb(1,0,0)" stroke="rgb(1,0,0)" stroke-width="1" opacity="0.9725490196078431" d="M 124.5 159 L 125 161.5 Q 119.1 190.1 100.5 206 Q 92.2 213.7 75.5 213 Q 60.6 210.4 52 201.5 L 53.5 199 L 61.5 195 L 72.5 201 L 87.5 202 Q 100.9 198.4 108 188.5 Q 118.5 176 124.5 159 Z " /><path fill="rgb(1,0,0)" stroke="rgb(1,0,0)" stroke-width="1" opacity="0.9725490196078431" d="M 129.5 159 Q 136.9 181.1 152.5 195 L 166.5 202 L 177.5 202 L 192.5 195 L 202 200.5 L 200.5 203 L 183.5 212 L 169.5 213 Q 153.3 209.2 145 197.5 Q 132.1 182.3 129.5 159 Z " /><path fill="rgb(240,240,239)" stroke="rgb(240,240,239)" stroke-width="1" opacity="0.9882352941176471" d="M 68 127 L 72 127.5 L 70 128 L 67.5 133 L 67 129.5 L 68 127 Z " /><path fill="rgb(240,240,239)" stroke="rgb(240,240,239)" stroke-width="1" opacity="0.9882352941176471" d="M 182.5 127 Q 186.9 125.5 186 128.5 L 187 132.5 L 186 132.5 L 182.5 127 Z " /><path fill="rgb(240,240,239)" stroke="rgb(240,240,239)" stroke-width="1" opacity="0.9882352941176471" d="M 74.5 129 Q 79 128 80 130.5 L 81 135.5 L 77.5 137 L 75.5 134 L 74 137.5 L 75 140 L 81.5 141 L 84 138.5 L 84.5 131 Q 87.8 132.8 86 139.5 Q 84.1 144.1 76.5 143 L 72 139.5 L 71 133.5 L 74.5 129 Z " /><path fill="rgb(240,240,239)" stroke="rgb(240,240,239)" stroke-width="1" opacity="0.9882352941176471" d="M 170.5 129 L 170 130.5 L 169 136.5 L 170 140 L 176.5 141 Q 180.5 140.5 180 135.5 L 177 133.5 L 178 135.5 L 174.5 137 Q 172 136 173 131.5 Q 173.8 128.3 178.5 129 L 182 131.5 L 183 136.5 L 179.5 142 L 172.5 143 L 168 139.5 L 167 136.5 L 170.5 129 Z " /><path fill="rgb(240,240,239)" stroke="rgb(240,240,239)" stroke-width="1" opacity="0.9882352941176471" d="M 55.5 131 Q 62 131 65 134.5 L 66 141.5 L 63 143.5 L 65 140.5 L 60.5 135 L 54 132.5 L 55.5 131 Z " /><path fill="rgb(240,240,239)" stroke="rgb(240,240,239)" stroke-width="1" opacity="0.9882352941176471" d="M 196.5 131 L 200 132.5 Q 192.5 134 189 139.5 L 191 143.5 L 188 141.5 Q 187 135 190.5 133 L 196.5 131 Z " /><path fill="rgb(240,240,239)" stroke="rgb(240,240,239)" stroke-width="1" opacity="0.9882352941176471" d="M 72.5 146 Q 81.8 144.7 84 150.5 L 85 158.5 L 80.5 165 L 80 163 L 78 162.5 L 82 156.5 L 82 153.5 L 77.5 149 L 72.5 149 Q 69.3 149.8 70 154.5 L 71 157 Q 75.7 157.9 78 155.5 L 76.5 153 Q 80.7 154.7 78 156.5 L 76.5 159 L 70.5 160 Q 66.3 158.7 67 152.5 L 70.5 147 L 72.5 146 Z " /><path fill="rgb(240,240,239)" stroke="rgb(240,240,239)" stroke-width="1" opacity="0.9882352941176471" d="M 175.5 146 Q 182.8 144.8 185 148.5 L 187 155.5 L 183.5 160 Q 177.7 160.8 176 157.5 L 175 155.5 L 178 153.5 L 176.5 156 L 183 157 L 184 152.5 L 181.5 149 Q 175 148 173 151.5 L 172 156.5 L 176 162.5 L 174 163 L 173.5 165 Q 167.8 162.2 169 152.5 L 173.5 147 L 175.5 146 Z " /><path fill="rgb(240,240,239)" stroke="rgb(240,240,239)" stroke-width="1" opacity="0.9882352941176471" d="M 89.5 147 L 93 149.5 L 93 162.5 L 88.5 169 L 68.5 181 L 74.5 174 Q 83.4 170.4 89 163.5 Q 91.9 159.9 91 152.5 L 89.5 147 Z " /><path fill="rgb(240,240,239)" stroke="rgb(240,240,239)" stroke-width="1" opacity="0.9882352941176471" d="M 164.5 147 L 164 148.5 L 163 158.5 Q 164.8 165.7 170.5 169 Q 179.9 173.1 186 180.5 L 183.5 179 Q 171.6 174.4 163 166.5 Q 160 162.5 160 155.5 Q 162.3 154.2 161 149.5 L 162.5 148 L 164.5 147 Z " /><path fill="rgb(240,240,239)" stroke="rgb(240,240,239)" stroke-width="1" opacity="0.9882352941176471" d="M 127.5 277 Q 133.4 277.6 136 281.5 L 137 288.5 L 135 293 L 131.5 295 L 124.5 295 Q 118.9 292.6 119 284.5 L 122.5 279 L 127.5 277 Z " /><path fill="rgb(234,192,86)" stroke="rgb(234,192,86)" stroke-width="1" opacity="0.9686274509803922" d="M 54.5 131 L 53.5 133 L 54.5 131 Z " /><path fill="rgb(234,192,86)" stroke="rgb(234,192,86)" stroke-width="1" opacity="0.9686274509803922" d="M 199.5 131 L 200.5 133 L 199.5 131 Z " /><path fill="rgb(234,192,86)" stroke="rgb(234,192,86)" stroke-width="1" opacity="0.9686274509803922" d="M 39.5 135 L 49.5 136 L 57 140.5 L 58 142.5 L 57 145 Q 52.3 146 51 142.5 L 55 142 L 53.5 139 L 50 140.5 Q 51.8 145.8 46.5 144 L 45.5 143 L 26.5 143 Q 16.5 145 10 150.5 L 11.5 151 L 24.5 146 L 39.5 145 L 53.5 148 L 61 153.5 L 62 156.5 L 58.5 162 L 38.5 153 Q 31.4 150.6 20.5 152 L 4.5 157 L 6.5 153 L 5 152.5 L 10.5 146 L 22.5 139 L 39.5 135 Z M 9 151 L 8 153 L 10 152 L 9 151 Z " /><path fill="rgb(234,192,86)" stroke="rgb(234,192,86)" stroke-width="1" opacity="0.9686274509803922" d="M 86.5 135 L 87 137.5 L 86 137.5 L 86.5 135 Z " /><path fill="rgb(234,192,86)" stroke="rgb(234,192,86)" stroke-width="1" opacity="0.9686274509803922" d="M 209.5 135 Q 234.8 135.8 247 149.5 L 249 153.5 L 248 154.5 L 249.5 157 L 233.5 152 L 219.5 152 L 195.5 162 Q 192.3 160.3 192 155.5 L 196.5 150 L 207.5 146 L 221.5 145 L 222.5 146 L 233.5 147 L 243.5 151 L 242.5 149 Q 231.2 140.3 208.5 143 L 204 144 Q 205 140.2 202.5 139 Q 197.3 137.5 199 142 L 203 142.5 L 197.5 145 L 196 142.5 L 199.5 138 L 209.5 135 Z M 245 151 L 246 153 L 247 153 L 245 151 Z " /><path fill="rgb(234,192,86)" stroke="rgb(234,192,86)" stroke-width="1" opacity="0.9686274509803922" d="M 168.5 140 L 169.5 142 L 168.5 140 Z " /><path fill="rgb(234,192,86)" stroke="rgb(234,192,86)" stroke-width="1" opacity="0.9686274509803922" d="M 90.5 147 L 89.5 149 L 90.5 147 Z " /><path fill="rgb(234,192,86)" stroke="rgb(234,192,86)" stroke-width="1" opacity="0.9686274509803922" d="M 163.5 147 L 164.5 149 L 163.5 147 Z " /><path fill="rgb(234,192,86)" stroke="rgb(234,192,86)" stroke-width="1" opacity="0.9686274509803922" d="M 174.5 150 L 173.5 152 L 174.5 150 Z " /><path fill="rgb(234,192,86)" stroke="rgb(234,192,86)" stroke-width="1" opacity="0.9686274509803922" d="M 77.5 153 L 79 154.5 L 78.5 157 L 77 155.5 L 77.5 153 Z " /><path fill="rgb(234,192,86)" stroke="rgb(234,192,86)" stroke-width="1" opacity="0.9686274509803922" d="M 81.5 153 L 82 156.5 L 81 156.5 L 81.5 153 Z " /><path fill="rgb(234,192,86)" stroke="rgb(234,192,86)" stroke-width="1" opacity="0.9686274509803922" d="M 176.5 153 L 177 155.5 L 175.5 157 L 175 154.5 L 176.5 153 Z " /><path fill="rgb(234,192,86)" stroke="rgb(234,192,86)" stroke-width="1" opacity="0.9686274509803922" d="M 93.5 154 L 94 159.5 L 93 159.5 L 93.5 154 Z " /><path fill="rgb(234,192,86)" stroke="rgb(234,192,86)" stroke-width="1" opacity="0.9686274509803922" d="M 77.5 163 L 80 163.5 L 77.5 164 L 77.5 163 Z " /><path fill="rgb(234,192,86)" stroke="rgb(234,192,86)" stroke-width="1" opacity="0.9686274509803922" d="M 174.5 163 L 177 163.5 L 174.5 164 L 174.5 163 Z " /><path fill="rgb(234,192,86)" stroke="rgb(234,192,86)" stroke-width="1" opacity="0.9686274509803922" d="M 70.5 177 L 68.5 180 L 70.5 177 Z " /><path fill="rgb(234,192,86)" stroke="rgb(234,192,86)" stroke-width="1" opacity="0.9686274509803922" d="M 184.5 178 L 183.5 180 L 184.5 178 Z " /><path fill="rgb(234,192,86)" stroke="rgb(234,192,86)" stroke-width="1" opacity="0.9686274509803922" d="M 73.5 216 L 90.5 216 L 91.5 217 L 105.5 218 Q 119.5 221 129.5 228 L 141.5 221 L 152.5 218 L 167.5 217 L 168.5 216 L 184 216 L 191.5 226 Q 193.8 225.3 193 227.5 L 207 242.5 L 207 245 L 183.5 246 L 166.5 249 L 163.5 251 L 159.5 251 L 151.5 254 L 139 261 Q 140 265.7 136.5 267 L 126.5 269 Q 119.9 268.1 117 263.5 Q 117.5 259.5 114.5 259 L 95.5 250 L 82.5 247 L 65.5 246 L 63.5 245 L 61.5 245 L 49.5 245 L 49 243.5 L 73.5 216 Z " /><path fill="rgb(9,162,81)" stroke="rgb(9,162,81)" stroke-width="1" opacity="0.9764705882352941" d="M 190.5 142 L 191.5 144 L 189 143.5 L 190.5 142 Z " /><path fill="rgb(9,162,81)" stroke="rgb(9,162,81)" stroke-width="1" opacity="0.9764705882352941" d="M 72.5 149 L 71.5 151 L 72.5 149 Z " /><path fill="rgb(9,162,81)" stroke="rgb(9,162,81)" stroke-width="1" opacity="0.9764705882352941" d="M 163.5 154 L 164 157.5 L 163 157.5 L 163.5 154 Z " /><path fill="rgb(9,162,81)" stroke="rgb(9,162,81)" stroke-width="1" opacity="0.9764705882352941" d="M 167.5 165 L 168.5 167 L 167.5 165 Z " /><path fill="rgb(9,162,81)" stroke="rgb(9,162,81)" stroke-width="1" opacity="0.9764705882352941" d="M 44.5 248 L 68.5 249 L 90.5 253 L 107.5 260 L 114 265.5 L 115 267.5 L 70.5 268 L 69.5 267 L 59.5 267 L 58.5 266 L 50.5 266 L 49.5 265 L 38.5 264 L 33 261.5 Q 34.3 254.8 38.5 251 L 44.5 248 Z " /><path fill="rgb(9,162,81)" stroke="rgb(9,162,81)" stroke-width="1" opacity="0.9764705882352941" d="M 198.5 248 Q 216.7 245.3 222 255.5 L 224 261.5 L 222.5 263 L 212.5 265 L 198.5 266 L 197.5 267 L 186.5 267 L 185.5 268 L 142 268 L 147.5 261 L 154.5 257 L 166.5 253 L 188.5 249 L 197.5 249 L 198.5 248 Z " /><path fill="rgb(9,162,81)" stroke="rgb(9,162,81)" stroke-width="1" opacity="0.9764705882352941" d="M 28.5 265 L 36.5 265 L 41.5 267 L 59.5 269 L 60.5 270 L 114.5 271 L 115.5 270 L 142.5 270 L 143.5 271 L 179.5 271 L 180.5 270 L 196.5 270 L 197.5 269 L 215.5 267 L 220.5 265 L 228.5 265 L 234 268.5 Q 234.8 272.3 232.5 273 L 225.5 275 L 221 272.5 L 220.5 269 L 219 272.5 L 220 276 Q 211.5 280.7 195.5 279 L 194.5 278 L 183.5 278 L 182.5 277 L 162.5 276 L 161.5 275 L 143.5 275 L 147 279.5 Q 150.7 283.3 151 290.5 L 146.5 296 L 138.5 299 L 123.5 300 L 114.5 298 L 107 292.5 L 106 288.5 Q 107.8 279.8 114 275.5 L 95.5 275 L 94.5 276 L 84.5 276 L 83.5 277 L 63.5 278 L 62.5 279 L 46.5 279 L 37 276 L 38 270.5 L 36 271.5 L 34.5 274 L 29.5 275 L 23 271.5 Q 22.3 267.8 24.5 267 L 28.5 265 Z M 127 277 L 123 279 L 119 284 Q 118 290 121 293 L 125 295 L 134 294 L 137 290 L 136 282 L 130 277 L 127 277 Z " /><path fill="rgb(9,162,81)" stroke="rgb(9,162,81)" stroke-width="1" opacity="0.9764705882352941" d="M 96.5 278 L 99 278.5 L 77.5 289 L 61.5 290 L 49.5 285 L 47 282.5 L 72.5 282 L 73.5 281 L 95.5 279 L 96.5 278 Z " /><path fill="rgb(9,162,81)" stroke="rgb(9,162,81)" stroke-width="1" opacity="0.9764705882352941" d="M 158.5 278 L 175.5 281 L 183.5 281 L 184.5 282 L 210 282.5 Q 202.5 291.5 184.5 290 L 173.5 287 L 159.5 280 L 158.5 278 Z " /><path fill="rgb(9,162,81)" stroke="rgb(9,162,81)" stroke-width="1" opacity="0.9764705882352941" d="M 102.5 280 L 102 281.5 L 101 290.5 L 104 297.5 L 97.5 298 L 96.5 297 L 84.5 296 L 77 292.5 L 90.5 288 L 102.5 280 Z " /><path fill="rgb(9,162,81)" stroke="rgb(9,162,81)" stroke-width="1" opacity="0.9764705882352941" d="M 154.5 280 L 166.5 288 L 180 292.5 L 172.5 296 L 153.5 298 L 154 296.5 L 156 290.5 L 156 284.5 L 154.5 280 Z " /></svg>