<svg width="44" height="44" viewBox="0 0 44 44" fill="none" xmlns="http://www.w3.org/2000/svg">
<g id="Frame 7">
<path id="Vector" d="M39.716 35.8463L31.805 24.149C31.6188 23.8705 31.3396 23.592 31.0604 23.4064L30.4089 22.9422C29.6643 22.3852 29.6643 21.364 30.4089 20.807L30.9673 20.4356C31.2465 20.25 31.5257 19.9715 31.7119 19.693L39.8091 8.18137C40.4606 7.16018 40.5536 5.86049 39.8091 4.93213C38.8784 3.72528 37.2031 3.44677 35.9932 4.28229L24.2662 12.1733C23.987 12.359 23.7078 12.6375 23.5216 12.916L23.0563 13.5658C22.4979 14.3085 21.4741 14.3085 20.9157 13.5658L20.5434 13.0088C20.3572 12.7303 20.078 12.4518 19.7988 12.2661L8.258 4.18945C7.23422 3.5396 5.93122 3.44677 5.00051 4.18945C3.79059 5.1178 3.51138 6.78884 4.34902 7.9957L12.2601 19.693C12.4462 19.9715 12.7254 20.25 13.0046 20.4356L13.6561 20.8998C14.4007 21.4568 14.4007 22.478 13.6561 23.035L13.0977 23.4064C12.8185 23.592 12.5393 23.8705 12.3531 24.149L4.16288 35.7535C3.41831 36.8675 3.51139 38.3529 4.4421 39.2812C5.37281 40.2096 6.86193 40.3952 7.97878 39.6525L19.7057 31.7615C19.9849 31.5759 20.2642 31.2974 20.4503 31.0189L20.9157 30.369C21.4741 29.6263 22.4979 29.6263 23.0563 30.369L23.4286 30.926C23.6147 31.2045 23.8939 31.483 24.1731 31.6687L35.9001 39.8382C37.0169 40.5809 38.5061 40.4881 39.4368 39.5597C40.3675 38.4457 40.4606 36.9603 39.716 35.8463Z" fill="#201B21"/>
</g>
</svg>
