<svg width="17" height="16" viewBox="0 0 17 16" fill="none" xmlns="http://www.w3.org/2000/svg">
<path d="M9.48697 1.06396L9.16297 5.44496L8.99997 5.45896V2.60996H7.99997V5.45796C7.88036 5.44937 7.76099 5.4377 7.64197 5.42296L7.12497 1.15096L6.13197 1.27096L6.60797 5.20496C6.45358 5.15846 6.30112 5.10575 6.15097 5.04696L5.66097 2.85196L4.68597 3.06896L4.98797 4.42596C5.11343 4.51455 5.2429 4.5973 5.37597 4.67396C6.06197 5.07096 7.10097 5.47496 8.49997 5.47496C9.89897 5.47496 10.938 5.07096 11.624 4.67296L11.456 4.76696L11.868 2.88096L10.891 2.66696L10.333 5.22196L10.179 5.26496L10.484 1.13596L9.48697 1.06396Z" fill="#297A3A"/>
<path d="M13.485 4.41206L13.414 4.51806L13.379 4.56406L13.377 4.56606L13.375 4.56806L13.369 4.57506L13.35 4.59506L13.286 4.66306C13.2091 4.74064 13.129 4.81504 13.046 4.88606C12.7605 5.13214 12.4525 5.35077 12.126 5.53906C11.312 6.01106 10.101 6.47606 8.50001 6.47606C6.89901 6.47606 5.68801 6.01106 4.87401 5.53906C4.54752 5.35077 4.23949 5.13214 3.95401 4.88606C3.84767 4.79479 3.7462 4.69799 3.65001 4.59606L3.63001 4.57506L3.62501 4.56806L3.62301 4.56606L3.62201 4.56506L4.00001 4.23706L3.62101 4.56406L3.58601 4.51806L3.51501 4.41206L4.50201 14.5491C4.51419 14.6727 4.57192 14.7873 4.66398 14.8707C4.75603 14.954 4.87582 15.0002 5.00001 15.0001H12C12.1242 15.0002 12.244 14.954 12.3361 14.8707C12.4281 14.7873 12.4858 14.6727 12.498 14.5491L13.485 4.41206Z" fill="#297A3A"/>
</svg>
