<svg width="17" height="16" viewBox="0 0 17 16" fill="none" xmlns="http://www.w3.org/2000/svg">
<path fill-rule="evenodd" clip-rule="evenodd" d="M9.70998 2.38606C9.80753 2.2418 9.84476 2.0651 9.81371 1.89375C9.78266 1.72239 9.68579 1.56999 9.54383 1.46914C9.40186 1.36828 9.22607 1.32698 9.05405 1.35406C8.88202 1.38114 8.72742 1.47446 8.62331 1.61406L7.95665 2.55339C7.93121 2.58894 7.90932 2.6269 7.89131 2.66672H5.49998C5.23476 2.66672 4.98041 2.77208 4.79287 2.95962C4.60534 3.14715 4.49998 3.40151 4.49998 3.66672V4.66672L4.50198 4.72272C4.30645 4.79139 4.13708 4.91911 4.01729 5.08822C3.8975 5.25733 3.83321 5.45949 3.83331 5.66672V6.66672C3.83331 6.84296 3.90309 7.01203 4.0274 7.13695C4.1517 7.26188 4.32041 7.33251 4.49665 7.33339L5.10998 13.4667C5.14303 13.7956 5.29707 14.1005 5.54221 14.3222C5.78735 14.544 6.10611 14.6667 6.43665 14.6667H10.5633C10.8939 14.6667 11.2126 14.544 11.4578 14.3222C11.7029 14.1005 11.8569 13.7956 11.89 13.4667L12.5033 7.33339C12.6795 7.33251 12.8483 7.26188 12.9726 7.13695C13.0969 7.01203 13.1666 6.84296 13.1666 6.66672V5.66672C13.1667 5.45949 13.1025 5.25733 12.9827 5.08822C12.8629 4.91911 12.6935 4.79139 12.498 4.72272L12.5 4.66672V3.66672C12.5 3.40151 12.3946 3.14715 12.2071 2.95962C12.0195 2.77208 11.7652 2.66672 11.5 2.66672H9.51131L9.70998 2.38606ZM5.83331 4.66672V4.00006H11.1666V4.66672H5.83331Z" fill="#2267B9"/>
</svg>
