<svg width="153" height="26" viewBox="0 0 153 26" fill="none" xmlns="http://www.w3.org/2000/svg">
<rect width="153" height="26" rx="8" fill="#EBFAEB"/>
<path d="M12.3665 16.1L18.0165 10.45C18.1498 10.3167 18.3054 10.25 18.4831 10.25C18.6609 10.25 18.8165 10.3167 18.9498 10.45C19.0831 10.5833 19.1498 10.7418 19.1498 10.9253C19.1498 11.1089 19.0831 11.2671 18.9498 11.4L12.8331 17.5333C12.6998 17.6667 12.5442 17.7333 12.3665 17.7333C12.1887 17.7333 12.0331 17.6667 11.8998 17.5333L9.03313 14.6667C8.89979 14.5333 8.83579 14.3751 8.84113 14.192C8.84646 14.0089 8.91602 13.8504 9.04979 13.7167C9.18357 13.5829 9.34202 13.5162 9.52513 13.5167C9.70824 13.5171 9.86646 13.5838 9.99979 13.7167L12.3665 16.1Z" fill="#297A3A"/>
<path d="M27.376 20V8.64H31.616C32.9173 8.64 33.9307 8.95467 34.656 9.584C35.3813 10.2027 35.744 11.0667 35.744 12.176C35.744 12.912 35.5787 13.552 35.248 14.096C34.9173 14.6293 34.4427 15.04 33.824 15.328C33.216 15.6053 32.48 15.744 31.616 15.744H29.104V20H27.376ZM29.104 14.176H31.568C32.3467 14.176 32.9387 14.0107 33.344 13.68C33.7493 13.3387 33.952 12.8373 33.952 12.176C33.952 11.5253 33.7493 11.04 33.344 10.72C32.9387 10.3893 32.3467 10.224 31.568 10.224H29.104V14.176ZM40.5745 20.192C39.7425 20.192 39.0225 20.0107 38.4145 19.648C37.8172 19.2853 37.3532 18.768 37.0225 18.096C36.7025 17.424 36.5425 16.64 36.5425 15.744C36.5425 14.848 36.7025 14.0693 37.0225 13.408C37.3532 12.736 37.8172 12.2187 38.4145 11.856C39.0118 11.4827 39.7158 11.296 40.5265 11.296C41.2945 11.296 41.9718 11.4773 42.5585 11.84C43.1452 12.192 43.5985 12.704 43.9185 13.376C44.2492 14.048 44.4145 14.8587 44.4145 15.808V16.24H38.3025C38.3452 17.072 38.5638 17.696 38.9585 18.112C39.3638 18.528 39.9078 18.736 40.5905 18.736C41.0918 18.736 41.5078 18.6187 41.8385 18.384C42.1692 18.1493 42.3985 17.8347 42.5265 17.44L44.2865 17.552C44.0625 18.3413 43.6198 18.9813 42.9585 19.472C42.3078 19.952 41.5132 20.192 40.5745 20.192ZM38.3025 14.96H42.6225C42.5692 14.2027 42.3505 13.6427 41.9665 13.28C41.5932 12.9173 41.1132 12.736 40.5265 12.736C39.9185 12.736 39.4172 12.928 39.0225 13.312C38.6385 13.6853 38.3985 14.2347 38.3025 14.96ZM49.221 20.192C48.421 20.192 47.7437 20.0693 47.189 19.824C46.645 19.5787 46.2237 19.2427 45.925 18.816C45.6263 18.3787 45.4557 17.8773 45.413 17.312L47.157 17.232C47.2423 17.7013 47.445 18.0747 47.765 18.352C48.085 18.6293 48.5703 18.768 49.221 18.768C49.7543 18.768 50.1757 18.6827 50.485 18.512C50.7943 18.3413 50.949 18.0693 50.949 17.696C50.949 17.4933 50.8957 17.3227 50.789 17.184C50.693 17.0347 50.501 16.912 50.213 16.816C49.925 16.7093 49.4983 16.608 48.933 16.512C48.0903 16.352 47.429 16.1653 46.949 15.952C46.469 15.7387 46.1277 15.4667 45.925 15.136C45.7223 14.8053 45.621 14.4053 45.621 13.936C45.621 13.1573 45.909 12.5227 46.485 12.032C47.0717 11.5413 47.9143 11.296 49.013 11.296C49.749 11.296 50.3677 11.424 50.869 11.68C51.3703 11.9253 51.7597 12.2613 52.037 12.688C52.325 13.104 52.5063 13.5733 52.581 14.096L50.837 14.192C50.7837 13.8933 50.677 13.6373 50.517 13.424C50.3677 13.2 50.165 13.0293 49.909 12.912C49.653 12.784 49.349 12.72 48.997 12.72C48.453 12.72 48.0477 12.8267 47.781 13.04C47.5143 13.2533 47.381 13.5307 47.381 13.872C47.381 14.128 47.4397 14.336 47.557 14.496C47.685 14.656 47.8877 14.7893 48.165 14.896C48.4423 14.992 48.8103 15.0773 49.269 15.152C50.1543 15.3013 50.8477 15.488 51.349 15.712C51.8503 15.9253 52.2023 16.192 52.405 16.512C52.6077 16.832 52.709 17.2213 52.709 17.68C52.709 18.2133 52.5597 18.6667 52.261 19.04C51.9623 19.4133 51.5517 19.7013 51.029 19.904C50.5063 20.096 49.9037 20.192 49.221 20.192ZM56.7892 20.192C55.9039 20.192 55.1946 19.9893 54.6612 19.584C54.1386 19.1787 53.8772 18.608 53.8772 17.872C53.8772 17.136 54.0959 16.5653 54.5332 16.16C54.9812 15.744 55.6692 15.4453 56.5972 15.264L59.5252 14.704C59.5252 14.0427 59.3706 13.552 59.0613 13.232C58.7519 12.9013 58.2932 12.736 57.6852 12.736C57.1412 12.736 56.7146 12.8587 56.4052 13.104C56.0959 13.3387 55.8826 13.6907 55.7652 14.16L54.0212 14.048C54.1812 13.1947 54.5759 12.5227 55.2052 12.032C55.8452 11.5413 56.6719 11.296 57.6852 11.296C58.8372 11.296 59.7119 11.6053 60.3093 12.224C60.9173 12.832 61.2213 13.6907 61.2213 14.8V18.112C61.2213 18.3147 61.2533 18.4587 61.3173 18.544C61.3919 18.6187 61.5093 18.656 61.6693 18.656H61.9733V20C61.9199 20.0107 61.8346 20.0213 61.7172 20.032C61.5999 20.0427 61.4773 20.048 61.3492 20.048C60.9866 20.048 60.6719 19.9893 60.4053 19.872C60.1493 19.7547 59.9573 19.5627 59.8293 19.296C59.7013 19.0187 59.6372 18.6507 59.6372 18.192L59.8133 18.272C59.7279 18.6453 59.5413 18.976 59.2533 19.264C58.9759 19.552 58.6186 19.7813 58.1813 19.952C57.7546 20.112 57.2906 20.192 56.7892 20.192ZM57.0612 18.848C57.5732 18.848 58.0106 18.752 58.3733 18.56C58.7359 18.3573 59.0186 18.08 59.2213 17.728C59.4239 17.376 59.5252 16.976 59.5252 16.528V15.984L57.0292 16.464C56.5172 16.56 56.1546 16.7147 55.9412 16.928C55.7386 17.1307 55.6372 17.392 55.6372 17.712C55.6372 18.0747 55.7599 18.3573 56.0052 18.56C56.2613 18.752 56.6133 18.848 57.0612 18.848ZM63.2132 20V11.488H64.7652L64.8292 13.76L64.6212 13.648C64.7172 13.0933 64.8986 12.6453 65.1652 12.304C65.4319 11.9627 65.7572 11.712 66.1412 11.552C66.5252 11.3813 66.9412 11.296 67.3892 11.296C68.0292 11.296 68.5572 11.44 68.9732 11.728C69.3999 12.0053 69.7199 12.3893 69.9332 12.88C70.1572 13.36 70.2692 13.9093 70.2692 14.528V20H68.5732V15.04C68.5732 14.5387 68.5199 14.1173 68.4132 13.776C68.3066 13.4347 68.1306 13.1733 67.8852 12.992C67.6399 12.8107 67.3199 12.72 66.9252 12.72C66.3279 12.72 65.8426 12.9173 65.4692 13.312C65.0959 13.7067 64.9092 14.2827 64.9092 15.04V20H63.2132ZM74.6865 20.192C73.8012 20.192 73.0918 19.9893 72.5585 19.584C72.0358 19.1787 71.7745 18.608 71.7745 17.872C71.7745 17.136 71.9932 16.5653 72.4305 16.16C72.8785 15.744 73.5665 15.4453 74.4945 15.264L77.4225 14.704C77.4225 14.0427 77.2678 13.552 76.9585 13.232C76.6492 12.9013 76.1905 12.736 75.5825 12.736C75.0385 12.736 74.6118 12.8587 74.3025 13.104C73.9932 13.3387 73.7798 13.6907 73.6625 14.16L71.9185 14.048C72.0785 13.1947 72.4732 12.5227 73.1025 12.032C73.7425 11.5413 74.5692 11.296 75.5825 11.296C76.7345 11.296 77.6092 11.6053 78.2065 12.224C78.8145 12.832 79.1185 13.6907 79.1185 14.8V18.112C79.1185 18.3147 79.1505 18.4587 79.2145 18.544C79.2892 18.6187 79.4065 18.656 79.5665 18.656H79.8705V20C79.8172 20.0107 79.7318 20.0213 79.6145 20.032C79.4972 20.0427 79.3745 20.048 79.2465 20.048C78.8838 20.048 78.5692 19.9893 78.3025 19.872C78.0465 19.7547 77.8545 19.5627 77.7265 19.296C77.5985 19.0187 77.5345 18.6507 77.5345 18.192L77.7105 18.272C77.6252 18.6453 77.4385 18.976 77.1505 19.264C76.8732 19.552 76.5158 19.7813 76.0785 19.952C75.6518 20.112 75.1878 20.192 74.6865 20.192ZM74.9585 18.848C75.4705 18.848 75.9078 18.752 76.2705 18.56C76.6332 18.3573 76.9158 18.08 77.1185 17.728C77.3212 17.376 77.4225 16.976 77.4225 16.528V15.984L74.9265 16.464C74.4145 16.56 74.0518 16.7147 73.8385 16.928C73.6358 17.1307 73.5345 17.392 73.5345 17.712C73.5345 18.0747 73.6572 18.3573 73.9025 18.56C74.1585 18.752 74.5105 18.848 74.9585 18.848ZM81.1105 20V11.488H82.6625L82.7265 13.76L82.5185 13.648C82.6145 13.0933 82.7958 12.6453 83.0625 12.304C83.3292 11.9627 83.6545 11.712 84.0385 11.552C84.4225 11.3813 84.8385 11.296 85.2865 11.296C85.9265 11.296 86.4545 11.44 86.8705 11.728C87.2972 12.0053 87.6172 12.3893 87.8305 12.88C88.0545 13.36 88.1665 13.9093 88.1665 14.528V20H86.4705V15.04C86.4705 14.5387 86.4172 14.1173 86.3105 13.776C86.2038 13.4347 86.0278 13.1733 85.7825 12.992C85.5372 12.8107 85.2172 12.72 84.8225 12.72C84.2252 12.72 83.7398 12.9173 83.3665 13.312C82.9932 13.7067 82.8065 14.2827 82.8065 15.04V20H81.1105ZM98.3422 20.256C97.4356 20.256 96.6462 20.0907 95.9742 19.76C95.3129 19.4293 94.7902 18.9707 94.4062 18.384C94.0222 17.7973 93.7982 17.1147 93.7342 16.336L95.5102 16.224C95.5849 16.7573 95.7396 17.2107 95.9742 17.584C96.2089 17.9467 96.5236 18.224 96.9182 18.416C97.3236 18.5973 97.8089 18.688 98.3742 18.688C98.8649 18.688 99.2809 18.6293 99.6222 18.512C99.9742 18.384 100.241 18.1973 100.422 17.952C100.604 17.7067 100.694 17.408 100.694 17.056C100.694 16.736 100.614 16.4533 100.454 16.208C100.305 15.952 100.012 15.7227 99.5742 15.52C99.1476 15.3067 98.5182 15.0987 97.6862 14.896C96.7796 14.672 96.0542 14.4267 95.5102 14.16C94.9662 13.8933 94.5716 13.5627 94.3262 13.168C94.0916 12.7627 93.9742 12.2667 93.9742 11.68C93.9742 11.0293 94.1289 10.4587 94.4382 9.968C94.7582 9.46667 95.2116 9.07733 95.7982 8.8C96.3849 8.52267 97.0889 8.384 97.9102 8.384C98.7742 8.384 99.5102 8.544 100.118 8.864C100.737 9.184 101.222 9.62133 101.574 10.176C101.937 10.7307 102.161 11.3653 102.246 12.08L100.47 12.176C100.417 11.7387 100.284 11.3547 100.07 11.024C99.8569 10.6827 99.5689 10.4213 99.2062 10.24C98.8436 10.048 98.4009 9.952 97.8782 9.952C97.2169 9.952 96.6942 10.1067 96.3102 10.416C95.9369 10.7147 95.7502 11.1147 95.7502 11.616C95.7502 11.936 95.8249 12.208 95.9742 12.432C96.1342 12.6453 96.4116 12.832 96.8062 12.992C97.2116 13.152 97.7822 13.3227 98.5182 13.504C99.4996 13.728 100.278 14.0053 100.854 14.336C101.441 14.656 101.857 15.0347 102.102 15.472C102.348 15.9093 102.47 16.4053 102.47 16.96C102.47 17.632 102.294 18.2187 101.942 18.72C101.601 19.2107 101.121 19.5893 100.502 19.856C99.8836 20.1227 99.1636 20.256 98.3422 20.256ZM108.039 20.192C107.207 20.192 106.487 20.0107 105.879 19.648C105.281 19.2853 104.817 18.768 104.487 18.096C104.167 17.424 104.007 16.64 104.007 15.744C104.007 14.848 104.167 14.0693 104.487 13.408C104.817 12.736 105.281 12.2187 105.879 11.856C106.476 11.4827 107.18 11.296 107.991 11.296C108.759 11.296 109.436 11.4773 110.023 11.84C110.609 12.192 111.063 12.704 111.383 13.376C111.713 14.048 111.879 14.8587 111.879 15.808V16.24H105.767C105.809 17.072 106.028 17.696 106.423 18.112C106.828 18.528 107.372 18.736 108.055 18.736C108.556 18.736 108.972 18.6187 109.303 18.384C109.633 18.1493 109.863 17.8347 109.991 17.44L111.751 17.552C111.527 18.3413 111.084 18.9813 110.423 19.472C109.772 19.952 108.977 20.192 108.039 20.192ZM105.767 14.96H110.087C110.033 14.2027 109.815 13.6427 109.431 13.28C109.057 12.9173 108.577 12.736 107.991 12.736C107.383 12.736 106.881 12.928 106.487 13.312C106.103 13.6853 105.863 14.2347 105.767 14.96ZM115.339 20C114.784 20 114.336 19.856 113.995 19.568C113.654 19.28 113.483 18.8213 113.483 18.192V8.64H115.179V18.032C115.179 18.224 115.227 18.368 115.323 18.464C115.43 18.56 115.579 18.608 115.771 18.608H116.443V20H115.339ZM121.201 20.192C120.369 20.192 119.649 20.0107 119.041 19.648C118.444 19.2853 117.98 18.768 117.649 18.096C117.329 17.424 117.169 16.64 117.169 15.744C117.169 14.848 117.329 14.0693 117.649 13.408C117.98 12.736 118.444 12.2187 119.041 11.856C119.639 11.4827 120.343 11.296 121.153 11.296C121.921 11.296 122.599 11.4773 123.185 11.84C123.772 12.192 124.225 12.704 124.545 13.376C124.876 14.048 125.041 14.8587 125.041 15.808V16.24H118.929C118.972 17.072 119.191 17.696 119.585 18.112C119.991 18.528 120.535 18.736 121.217 18.736C121.719 18.736 122.135 18.6187 122.465 18.384C122.796 18.1493 123.025 17.8347 123.153 17.44L124.913 17.552C124.689 18.3413 124.247 18.9813 123.585 19.472C122.935 19.952 122.14 20.192 121.201 20.192ZM118.929 14.96H123.249C123.196 14.2027 122.977 13.6427 122.593 13.28C122.22 12.9173 121.74 12.736 121.153 12.736C120.545 12.736 120.044 12.928 119.649 13.312C119.265 13.6853 119.025 14.2347 118.929 14.96ZM129.848 20.192C129.048 20.192 128.371 20.0693 127.816 19.824C127.272 19.5787 126.851 19.2427 126.552 18.816C126.253 18.3787 126.083 17.8773 126.04 17.312L127.784 17.232C127.869 17.7013 128.072 18.0747 128.392 18.352C128.712 18.6293 129.197 18.768 129.848 18.768C130.381 18.768 130.803 18.6827 131.112 18.512C131.421 18.3413 131.576 18.0693 131.576 17.696C131.576 17.4933 131.523 17.3227 131.416 17.184C131.32 17.0347 131.128 16.912 130.84 16.816C130.552 16.7093 130.125 16.608 129.56 16.512C128.717 16.352 128.056 16.1653 127.576 15.952C127.096 15.7387 126.755 15.4667 126.552 15.136C126.349 14.8053 126.248 14.4053 126.248 13.936C126.248 13.1573 126.536 12.5227 127.112 12.032C127.699 11.5413 128.541 11.296 129.64 11.296C130.376 11.296 130.995 11.424 131.496 11.68C131.997 11.9253 132.387 12.2613 132.664 12.688C132.952 13.104 133.133 13.5733 133.208 14.096L131.464 14.192C131.411 13.8933 131.304 13.6373 131.144 13.424C130.995 13.2 130.792 13.0293 130.536 12.912C130.28 12.784 129.976 12.72 129.624 12.72C129.08 12.72 128.675 12.8267 128.408 13.04C128.141 13.2533 128.008 13.5307 128.008 13.872C128.008 14.128 128.067 14.336 128.184 14.496C128.312 14.656 128.515 14.7893 128.792 14.896C129.069 14.992 129.437 15.0773 129.896 15.152C130.781 15.3013 131.475 15.488 131.976 15.712C132.477 15.9253 132.829 16.192 133.032 16.512C133.235 16.832 133.336 17.2213 133.336 17.68C133.336 18.2133 133.187 18.6667 132.888 19.04C132.589 19.4133 132.179 19.7013 131.656 19.904C131.133 20.096 130.531 20.192 129.848 20.192ZM137.416 20.192C136.531 20.192 135.821 19.9893 135.288 19.584C134.765 19.1787 134.504 18.608 134.504 17.872C134.504 17.136 134.723 16.5653 135.16 16.16C135.608 15.744 136.296 15.4453 137.224 15.264L140.152 14.704C140.152 14.0427 139.997 13.552 139.688 13.232C139.379 12.9013 138.92 12.736 138.312 12.736C137.768 12.736 137.341 12.8587 137.032 13.104C136.723 13.3387 136.509 13.6907 136.392 14.16L134.648 14.048C134.808 13.1947 135.203 12.5227 135.832 12.032C136.472 11.5413 137.299 11.296 138.312 11.296C139.464 11.296 140.339 11.6053 140.936 12.224C141.544 12.832 141.848 13.6907 141.848 14.8V18.112C141.848 18.3147 141.88 18.4587 141.944 18.544C142.019 18.6187 142.136 18.656 142.296 18.656H142.6V20C142.547 20.0107 142.461 20.0213 142.344 20.032C142.227 20.0427 142.104 20.048 141.976 20.048C141.613 20.048 141.299 19.9893 141.032 19.872C140.776 19.7547 140.584 19.5627 140.456 19.296C140.328 19.0187 140.264 18.6507 140.264 18.192L140.44 18.272C140.355 18.6453 140.168 18.976 139.88 19.264C139.603 19.552 139.245 19.7813 138.808 19.952C138.381 20.112 137.917 20.192 137.416 20.192ZM137.688 18.848C138.2 18.848 138.637 18.752 139 18.56C139.363 18.3573 139.645 18.08 139.848 17.728C140.051 17.376 140.152 16.976 140.152 16.528V15.984L137.656 16.464C137.144 16.56 136.781 16.7147 136.568 16.928C136.365 17.1307 136.264 17.392 136.264 17.712C136.264 18.0747 136.387 18.3573 136.632 18.56C136.888 18.752 137.24 18.848 137.688 18.848ZM143.762 20V11.488H145.458V20H143.762ZM143.73 10.256V8.56H145.49V10.256H143.73Z" fill="#297A3A"/>
</svg>
