<svg width="143" height="28" viewBox="0 0 143 28" fill="none" xmlns="http://www.w3.org/2000/svg">
<rect x="0.333008" width="142" height="28" rx="8" fill="#D6FAFF"/>
<path d="M12.7088 11.8203L13.0522 13.0623C13.3755 14.2323 13.5368 14.8177 14.0122 15.0837C14.4875 15.3503 15.0908 15.193 16.2975 14.8797L17.5775 14.5463C18.7842 14.233 19.3875 14.0763 19.6622 13.6157C19.9368 13.1543 19.7755 12.569 19.4515 11.399L19.1088 10.1577C18.7855 8.98699 18.6235 8.40166 18.1488 8.13566C17.6728 7.86899 17.0695 8.02632 15.8628 8.34032L14.5828 8.67232C13.3762 8.98566 12.7728 9.14299 12.4988 9.60432C12.2242 10.065 12.3855 10.6503 12.7088 11.8203Z" fill="#2267B9"/>
<path d="M7.85113 9.4972C7.8687 9.43389 7.89857 9.37465 7.93904 9.32289C7.97951 9.27112 8.02979 9.22785 8.087 9.19553C8.14421 9.16321 8.20723 9.14248 8.27246 9.13453C8.33768 9.12658 8.40384 9.13157 8.46713 9.1492L9.60247 9.46387C9.90327 9.54577 10.1778 9.70411 10.3993 9.9235C10.6208 10.1429 10.7817 10.4159 10.8665 10.7159L12.3005 15.9065L12.4058 16.2712C12.831 16.4279 13.1893 16.7262 13.4205 17.1159L13.6271 17.0519L19.5405 15.5152C19.604 15.4987 19.6702 15.4948 19.7353 15.5038C19.8003 15.5129 19.863 15.5346 19.9196 15.5679C19.9763 15.6011 20.0258 15.6452 20.0654 15.6976C20.105 15.75 20.1339 15.8096 20.1505 15.8732C20.167 15.9368 20.1709 16.003 20.1618 16.068C20.1528 16.1331 20.131 16.1957 20.0978 16.2523C20.0646 16.309 20.0205 16.3585 19.9681 16.3981C19.9157 16.4378 19.856 16.4667 19.7925 16.4832L13.9011 18.0139L13.6811 18.0819C13.6771 18.9285 13.0925 19.7032 12.2078 19.9325C11.1478 20.2085 10.0578 19.5979 9.7738 18.5699C9.4898 17.5419 10.1191 16.4839 11.1791 16.2085C11.232 16.1952 11.2847 16.1836 11.3371 16.1739L9.90247 10.9819C9.86367 10.8486 9.79113 10.7275 9.69185 10.6305C9.59258 10.5334 9.46994 10.4636 9.3358 10.4279L8.1998 10.1125C8.1365 10.095 8.07726 10.0652 8.02547 10.0248C7.97369 9.98445 7.93037 9.93424 7.89799 9.8771C7.86561 9.81996 7.84481 9.757 7.83677 9.69181C7.82873 9.62663 7.83361 9.5605 7.85113 9.4972Z" fill="#2267B9"/>
<path d="M31.805 20.256C30.8983 20.256 30.109 20.0907 29.437 19.76C28.7757 19.4293 28.253 18.9707 27.869 18.384C27.485 17.7973 27.261 17.1147 27.197 16.336L28.973 16.224C29.0477 16.7573 29.2023 17.2107 29.437 17.584C29.6717 17.9467 29.9863 18.224 30.381 18.416C30.7863 18.5973 31.2717 18.688 31.837 18.688C32.3277 18.688 32.7437 18.6293 33.085 18.512C33.437 18.384 33.7037 18.1973 33.885 17.952C34.0663 17.7067 34.157 17.408 34.157 17.056C34.157 16.736 34.077 16.4533 33.917 16.208C33.7677 15.952 33.4743 15.7227 33.037 15.52C32.6103 15.3067 31.981 15.0987 31.149 14.896C30.2423 14.672 29.517 14.4267 28.973 14.16C28.429 13.8933 28.0343 13.5627 27.789 13.168C27.5543 12.7627 27.437 12.2667 27.437 11.68C27.437 11.0293 27.5917 10.4587 27.901 9.968C28.221 9.46667 28.6743 9.07733 29.261 8.8C29.8477 8.52267 30.5517 8.384 31.373 8.384C32.237 8.384 32.973 8.544 33.581 8.864C34.1997 9.184 34.685 9.62133 35.037 10.176C35.3997 10.7307 35.6237 11.3653 35.709 12.08L33.933 12.176C33.8797 11.7387 33.7463 11.3547 33.533 11.024C33.3197 10.6827 33.0317 10.4213 32.669 10.24C32.3063 10.048 31.8637 9.952 31.341 9.952C30.6797 9.952 30.157 10.1067 29.773 10.416C29.3997 10.7147 29.213 11.1147 29.213 11.616C29.213 11.936 29.2877 12.208 29.437 12.432C29.597 12.6453 29.8743 12.832 30.269 12.992C30.6743 13.152 31.245 13.3227 31.981 13.504C32.9623 13.728 33.741 14.0053 34.317 14.336C34.9037 14.656 35.3197 15.0347 35.565 15.472C35.8103 15.9093 35.933 16.4053 35.933 16.96C35.933 17.632 35.757 18.2187 35.405 18.72C35.0637 19.2107 34.5837 19.5893 33.965 19.856C33.3463 20.1227 32.6263 20.256 31.805 20.256ZM41.5013 20.192C40.6693 20.192 39.9493 20.0107 39.3413 19.648C38.7439 19.2853 38.2799 18.768 37.9493 18.096C37.6293 17.424 37.4693 16.64 37.4693 15.744C37.4693 14.848 37.6293 14.0693 37.9493 13.408C38.2799 12.736 38.7439 12.2187 39.3413 11.856C39.9386 11.4827 40.6426 11.296 41.4533 11.296C42.2213 11.296 42.8986 11.4773 43.4853 11.84C44.0719 12.192 44.5253 12.704 44.8453 13.376C45.1759 14.048 45.3413 14.8587 45.3413 15.808V16.24H39.2293C39.2719 17.072 39.4906 17.696 39.8853 18.112C40.2906 18.528 40.8346 18.736 41.5173 18.736C42.0186 18.736 42.4346 18.6187 42.7653 18.384C43.0959 18.1493 43.3253 17.8347 43.4533 17.44L45.2133 17.552C44.9893 18.3413 44.5466 18.9813 43.8853 19.472C43.2346 19.952 42.4399 20.192 41.5013 20.192ZM39.2293 14.96H43.5493C43.4959 14.2027 43.2773 13.6427 42.8933 13.28C42.5199 12.9173 42.0399 12.736 41.4533 12.736C40.8453 12.736 40.3439 12.928 39.9493 13.312C39.5653 13.6853 39.3253 14.2347 39.2293 14.96ZM49.8918 20.192C49.1664 20.192 48.5318 20.0107 47.9878 19.648C47.4544 19.2853 47.0438 18.7733 46.7558 18.112C46.4784 17.44 46.3398 16.6507 46.3398 15.744C46.3398 14.8373 46.4838 14.0533 46.7718 13.392C47.0598 12.72 47.4704 12.2027 48.0038 11.84C48.5371 11.4773 49.1664 11.296 49.8918 11.296C50.4784 11.296 51.0011 11.4187 51.4598 11.664C51.9184 11.9093 52.2651 12.2507 52.4998 12.688V8.64H54.1958V20H52.6118L52.5638 18.72C52.3291 19.1787 51.9718 19.5413 51.4918 19.808C51.0224 20.064 50.4891 20.192 49.8918 20.192ZM50.3398 18.72C50.7984 18.72 51.1878 18.6027 51.5078 18.368C51.8278 18.1333 52.0731 17.792 52.2438 17.344C52.4144 16.896 52.4998 16.3627 52.4998 15.744C52.4998 15.104 52.4144 14.5653 52.2438 14.128C52.0731 13.68 51.8278 13.344 51.5078 13.12C51.1878 12.8853 50.7984 12.768 50.3398 12.768C49.6571 12.768 49.1131 13.0347 48.7078 13.568C48.3024 14.0907 48.0998 14.816 48.0998 15.744C48.0998 16.6613 48.3024 17.3867 48.7078 17.92C49.1131 18.4533 49.6571 18.72 50.3398 18.72ZM58.6379 20.192C57.7525 20.192 57.0432 19.9893 56.5099 19.584C55.9872 19.1787 55.7259 18.608 55.7259 17.872C55.7259 17.136 55.9445 16.5653 56.3819 16.16C56.8299 15.744 57.5179 15.4453 58.4459 15.264L61.3739 14.704C61.3739 14.0427 61.2192 13.552 60.9099 13.232C60.6005 12.9013 60.1419 12.736 59.5339 12.736C58.9899 12.736 58.5632 12.8587 58.2539 13.104C57.9445 13.3387 57.7312 13.6907 57.6139 14.16L55.8699 14.048C56.0299 13.1947 56.4245 12.5227 57.0539 12.032C57.6939 11.5413 58.5205 11.296 59.5339 11.296C60.6859 11.296 61.5605 11.6053 62.1579 12.224C62.7659 12.832 63.0699 13.6907 63.0699 14.8V18.112C63.0699 18.3147 63.1019 18.4587 63.1659 18.544C63.2405 18.6187 63.3579 18.656 63.5179 18.656H63.8219V20C63.7685 20.0107 63.6832 20.0213 63.5659 20.032C63.4485 20.0427 63.3259 20.048 63.1979 20.048C62.8352 20.048 62.5205 19.9893 62.2539 19.872C61.9979 19.7547 61.8059 19.5627 61.6779 19.296C61.5499 19.0187 61.4859 18.6507 61.4859 18.192L61.6619 18.272C61.5765 18.6453 61.3899 18.976 61.1019 19.264C60.8245 19.552 60.4672 19.7813 60.0299 19.952C59.6032 20.112 59.1392 20.192 58.6379 20.192ZM58.9099 18.848C59.4219 18.848 59.8592 18.752 60.2219 18.56C60.5845 18.3573 60.8672 18.08 61.0699 17.728C61.2725 17.376 61.3739 16.976 61.3739 16.528V15.984L58.8779 16.464C58.3659 16.56 58.0032 16.7147 57.7899 16.928C57.5872 17.1307 57.4859 17.392 57.4859 17.712C57.4859 18.0747 57.6085 18.3573 57.8539 18.56C58.1099 18.752 58.4619 18.848 58.9099 18.848ZM65.0619 20V11.488H66.6139L66.6779 13.76L66.4699 13.648C66.5659 13.0933 66.7472 12.6453 67.0139 12.304C67.2805 11.9627 67.6059 11.712 67.9899 11.552C68.3739 11.3813 68.7899 11.296 69.2379 11.296C69.8779 11.296 70.4059 11.44 70.8219 11.728C71.2485 12.0053 71.5685 12.3893 71.7819 12.88C72.0059 13.36 72.1179 13.9093 72.1179 14.528V20H70.4219V15.04C70.4219 14.5387 70.3685 14.1173 70.2619 13.776C70.1552 13.4347 69.9792 13.1733 69.7339 12.992C69.4885 12.8107 69.1685 12.72 68.7739 12.72C68.1765 12.72 67.6912 12.9173 67.3179 13.312C66.9445 13.7067 66.7579 14.2827 66.7579 15.04V20H65.0619ZM77.5595 22.592C76.8875 22.592 76.2955 22.4907 75.7835 22.288C75.2715 22.0853 74.8502 21.7973 74.5195 21.424C74.1888 21.0613 73.9648 20.6347 73.8475 20.144L75.6075 20.032C75.7248 20.384 75.9275 20.6613 76.2155 20.864C76.5142 21.0773 76.9622 21.184 77.5595 21.184C78.2635 21.184 78.8022 21.0347 79.1755 20.736C79.5595 20.4373 79.7515 19.984 79.7515 19.376V18.144C79.5488 18.5813 79.2235 18.928 78.7755 19.184C78.3275 19.44 77.8262 19.568 77.2715 19.568C76.5568 19.568 75.9222 19.392 75.3675 19.04C74.8128 18.688 74.3808 18.2027 74.0715 17.584C73.7622 16.9653 73.6075 16.2507 73.6075 15.44C73.6075 14.6187 73.7568 13.8987 74.0555 13.28C74.3648 12.6613 74.7915 12.176 75.3355 11.824C75.8902 11.472 76.5142 11.296 77.2075 11.296C77.8155 11.296 78.3488 11.4347 78.8075 11.712C79.2768 11.9893 79.6128 12.3627 79.8155 12.832V11.488H81.4475V19.328C81.4475 20.032 81.2875 20.624 80.9675 21.104C80.6582 21.5947 80.2102 21.9627 79.6235 22.208C79.0475 22.464 78.3595 22.592 77.5595 22.592ZM77.5435 18.128C78.2048 18.128 78.7328 17.888 79.1275 17.408C79.5328 16.928 79.7408 16.2667 79.7515 15.424C79.7622 14.8693 79.6768 14.3947 79.4955 14C79.3142 13.5947 79.0528 13.2853 78.7115 13.072C78.3808 12.848 77.9915 12.736 77.5435 12.736C76.8502 12.736 76.3115 12.9813 75.9275 13.472C75.5542 13.952 75.3675 14.6027 75.3675 15.424C75.3675 16.256 75.5595 16.9173 75.9435 17.408C76.3382 17.888 76.8715 18.128 77.5435 18.128ZM90.3849 20.192C89.6595 20.192 89.0249 20.0107 88.4809 19.648C87.9475 19.2853 87.5369 18.7733 87.2489 18.112C86.9715 17.44 86.8329 16.6507 86.8329 15.744C86.8329 14.8373 86.9769 14.0533 87.2649 13.392C87.5529 12.72 87.9635 12.2027 88.4969 11.84C89.0302 11.4773 89.6595 11.296 90.3849 11.296C90.9715 11.296 91.4942 11.4187 91.9529 11.664C92.4115 11.9093 92.7582 12.2507 92.9929 12.688V8.64H94.6889V20H93.1049L93.0569 18.72C92.8222 19.1787 92.4649 19.5413 91.9849 19.808C91.5155 20.064 90.9822 20.192 90.3849 20.192ZM90.8329 18.72C91.2915 18.72 91.6809 18.6027 92.0009 18.368C92.3209 18.1333 92.5662 17.792 92.7369 17.344C92.9075 16.896 92.9929 16.3627 92.9929 15.744C92.9929 15.104 92.9075 14.5653 92.7369 14.128C92.5662 13.68 92.3209 13.344 92.0009 13.12C91.6809 12.8853 91.2915 12.768 90.8329 12.768C90.1502 12.768 89.6062 13.0347 89.2009 13.568C88.7955 14.0907 88.5929 14.816 88.5929 15.744C88.5929 16.6613 88.7955 17.3867 89.2009 17.92C89.6062 18.4533 90.1502 18.72 90.8329 18.72ZM96.622 20V11.488H98.318V20H96.622ZM96.59 10.256V8.56H98.35V10.256H96.59ZM100.243 20V8.64H101.939V15.696L105.763 11.488H107.907L104.579 15.072L108.035 20H106.083L103.443 16.128L101.939 17.728V20H100.243ZM109.004 20V11.488H110.7V20H109.004ZM108.972 10.256V8.56H110.732V10.256H108.972ZM113.046 20V11.488H114.598L114.662 13.744L114.518 13.696C114.635 12.928 114.87 12.368 115.222 12.016C115.585 11.664 116.07 11.488 116.678 11.488H117.494V13.008H116.678C116.251 13.008 115.894 13.0773 115.606 13.216C115.318 13.3547 115.099 13.568 114.95 13.856C114.811 14.144 114.742 14.5173 114.742 14.976V20H113.046ZM118.698 20V11.488H120.394V20H118.698ZM118.666 10.256V8.56H120.426V10.256H118.666ZM122.74 20V11.488H124.292L124.34 13.6L124.148 13.536C124.244 13.0667 124.409 12.6667 124.644 12.336C124.889 12.0053 125.188 11.7493 125.54 11.568C125.892 11.3867 126.276 11.296 126.692 11.296C127.417 11.296 128.009 11.504 128.468 11.92C128.927 12.3253 129.215 12.8853 129.332 13.6H129.06C129.156 13.0987 129.316 12.6827 129.54 12.352C129.775 12.0107 130.073 11.7493 130.436 11.568C130.799 11.3867 131.209 11.296 131.668 11.296C132.265 11.296 132.772 11.424 133.188 11.68C133.615 11.9253 133.935 12.288 134.148 12.768C134.372 13.248 134.484 13.8347 134.484 14.528V20H132.788V14.944C132.788 14.208 132.655 13.6533 132.388 13.28C132.121 12.9067 131.716 12.72 131.172 12.72C130.82 12.72 130.511 12.8107 130.244 12.992C129.977 13.1733 129.769 13.4347 129.62 13.776C129.481 14.1173 129.412 14.528 129.412 15.008V20H127.796V15.008C127.796 14.2827 127.673 13.7227 127.428 13.328C127.193 12.9227 126.788 12.72 126.212 12.72C125.849 12.72 125.535 12.8107 125.268 12.992C125.012 13.1733 124.809 13.44 124.66 13.792C124.511 14.1333 124.436 14.5387 124.436 15.008V20H122.74Z" fill="#2267B9"/>
</svg>
