<svg width="123" height="28" viewBox="0 0 123 28" fill="none" xmlns="http://www.w3.org/2000/svg">
<rect x="0.333008" width="122" height="28" rx="8" fill="#F3EAFF"/>
<path d="M12.3728 7.28714C11.1128 7.28047 9.88618 8.4938 10.4462 10.0005H8.33285C7.97922 10.0005 7.64008 10.1409 7.39004 10.391C7.13999 10.641 6.99951 10.9802 6.99951 11.3338V12.6671C6.99951 12.8439 7.06975 13.0135 7.19477 13.1385C7.3198 13.2636 7.48937 13.3338 7.66618 13.3338H13.6662V11.3338H14.9995V13.3338H20.9995C21.1763 13.3338 21.3459 13.2636 21.4709 13.1385C21.5959 13.0135 21.6662 12.8439 21.6662 12.6671V11.3338C21.6662 10.9802 21.5257 10.641 21.2757 10.391C21.0256 10.1409 20.6865 10.0005 20.3328 10.0005H18.2195C18.9995 7.82047 16.0662 6.28047 14.7128 8.16047L14.3328 8.66714L13.9528 8.14714C13.5328 7.5538 12.9528 7.2938 12.3728 7.28714ZM12.3328 8.66714C12.9262 8.66714 13.2262 9.38714 12.8062 9.80714C12.3862 10.2271 11.6662 9.92714 11.6662 9.3338C11.6662 9.15699 11.7364 8.98742 11.8614 8.8624C11.9865 8.73737 12.156 8.66714 12.3328 8.66714ZM16.3328 8.66714C16.9262 8.66714 17.2262 9.38714 16.8062 9.80714C16.3862 10.2271 15.6662 9.92714 15.6662 9.3338C15.6662 9.15699 15.7364 8.98742 15.8614 8.8624C15.9865 8.73737 16.156 8.66714 16.3328 8.66714ZM7.66618 14.0005V19.3338C7.66618 19.6874 7.80665 20.0266 8.0567 20.2766C8.30675 20.5267 8.64589 20.6671 8.99951 20.6671H19.6662C20.0198 20.6671 20.3589 20.5267 20.609 20.2766C20.859 20.0266 20.9995 19.6874 20.9995 19.3338V14.0005H14.9995V19.3338H13.6662V14.0005H7.66618Z" fill="#7348C0"/>
<path d="M31.805 20.256C30.8983 20.256 30.109 20.0907 29.437 19.76C28.7757 19.4293 28.253 18.9707 27.869 18.384C27.485 17.7973 27.261 17.1147 27.197 16.336L28.973 16.224C29.0477 16.7573 29.2023 17.2107 29.437 17.584C29.6717 17.9467 29.9863 18.224 30.381 18.416C30.7863 18.5973 31.2717 18.688 31.837 18.688C32.3277 18.688 32.7437 18.6293 33.085 18.512C33.437 18.384 33.7037 18.1973 33.885 17.952C34.0663 17.7067 34.157 17.408 34.157 17.056C34.157 16.736 34.077 16.4533 33.917 16.208C33.7677 15.952 33.4743 15.7227 33.037 15.52C32.6103 15.3067 31.981 15.0987 31.149 14.896C30.2423 14.672 29.517 14.4267 28.973 14.16C28.429 13.8933 28.0343 13.5627 27.789 13.168C27.5543 12.7627 27.437 12.2667 27.437 11.68C27.437 11.0293 27.5917 10.4587 27.901 9.968C28.221 9.46667 28.6743 9.07733 29.261 8.8C29.8477 8.52267 30.5517 8.384 31.373 8.384C32.237 8.384 32.973 8.544 33.581 8.864C34.1997 9.184 34.685 9.62133 35.037 10.176C35.3997 10.7307 35.6237 11.3653 35.709 12.08L33.933 12.176C33.8797 11.7387 33.7463 11.3547 33.533 11.024C33.3197 10.6827 33.0317 10.4213 32.669 10.24C32.3063 10.048 31.8637 9.952 31.341 9.952C30.6797 9.952 30.157 10.1067 29.773 10.416C29.3997 10.7147 29.213 11.1147 29.213 11.616C29.213 11.936 29.2877 12.208 29.437 12.432C29.597 12.6453 29.8743 12.832 30.269 12.992C30.6743 13.152 31.245 13.3227 31.981 13.504C32.9623 13.728 33.741 14.0053 34.317 14.336C34.9037 14.656 35.3197 15.0347 35.565 15.472C35.8103 15.9093 35.933 16.4053 35.933 16.96C35.933 17.632 35.757 18.2187 35.405 18.72C35.0637 19.2107 34.5837 19.5893 33.965 19.856C33.3463 20.1227 32.6263 20.256 31.805 20.256ZM37.5754 20V11.488H39.2714V20H37.5754ZM37.5434 10.256V8.56H39.3034V10.256H37.5434ZM43.7049 20.192C42.8195 20.192 42.1102 19.9893 41.5769 19.584C41.0542 19.1787 40.7929 18.608 40.7929 17.872C40.7929 17.136 41.0115 16.5653 41.4489 16.16C41.8969 15.744 42.5849 15.4453 43.5129 15.264L46.4409 14.704C46.4409 14.0427 46.2862 13.552 45.9769 13.232C45.6675 12.9013 45.2089 12.736 44.6009 12.736C44.0569 12.736 43.6302 12.8587 43.3209 13.104C43.0115 13.3387 42.7982 13.6907 42.6809 14.16L40.9369 14.048C41.0969 13.1947 41.4915 12.5227 42.1209 12.032C42.7609 11.5413 43.5875 11.296 44.6009 11.296C45.7529 11.296 46.6275 11.6053 47.2249 12.224C47.8329 12.832 48.1369 13.6907 48.1369 14.8V18.112C48.1369 18.3147 48.1689 18.4587 48.2329 18.544C48.3075 18.6187 48.4249 18.656 48.5849 18.656H48.8889V20C48.8356 20.0107 48.7502 20.0213 48.6329 20.032C48.5155 20.0427 48.3929 20.048 48.2649 20.048C47.9022 20.048 47.5876 19.9893 47.3209 19.872C47.0649 19.7547 46.8729 19.5627 46.7449 19.296C46.6169 19.0187 46.5529 18.6507 46.5529 18.192L46.7289 18.272C46.6436 18.6453 46.4569 18.976 46.1689 19.264C45.8916 19.552 45.5342 19.7813 45.0969 19.952C44.6702 20.112 44.2062 20.192 43.7049 20.192ZM43.9769 18.848C44.4889 18.848 44.9262 18.752 45.2889 18.56C45.6515 18.3573 45.9342 18.08 46.1369 17.728C46.3395 17.376 46.4409 16.976 46.4409 16.528V15.984L43.9449 16.464C43.4329 16.56 43.0702 16.7147 42.8569 16.928C42.6542 17.1307 42.5529 17.392 42.5529 17.712C42.5529 18.0747 42.6755 18.3573 42.9209 18.56C43.1769 18.752 43.5289 18.848 43.9769 18.848ZM50.1289 22.4V11.488H51.7289L51.7769 13.312L51.5849 13.216C51.7982 12.5867 52.1502 12.112 52.6409 11.792C53.1315 11.4613 53.6969 11.296 54.3369 11.296C55.1689 11.296 55.8515 11.504 56.3849 11.92C56.9289 12.3253 57.3289 12.864 57.5849 13.536C57.8515 14.208 57.9849 14.944 57.9849 15.744C57.9849 16.544 57.8515 17.28 57.5849 17.952C57.3289 18.624 56.9289 19.168 56.3849 19.584C55.8515 19.9893 55.1689 20.192 54.3369 20.192C53.9102 20.192 53.5102 20.1173 53.1369 19.968C52.7635 19.8187 52.4435 19.6107 52.1769 19.344C51.9209 19.0667 51.7395 18.7413 51.6329 18.368L51.8249 18.176V22.4H50.1289ZM54.0329 18.72C54.7155 18.72 55.2489 18.4587 55.6329 17.936C56.0275 17.4133 56.2249 16.6827 56.2249 15.744C56.2249 14.8053 56.0275 14.0747 55.6329 13.552C55.2489 13.0293 54.7155 12.768 54.0329 12.768C53.5849 12.768 53.1955 12.88 52.8649 13.104C52.5342 13.3173 52.2782 13.648 52.0969 14.096C51.9155 14.544 51.8249 15.0933 51.8249 15.744C51.8249 16.3947 51.9102 16.944 52.0809 17.392C52.2622 17.84 52.5182 18.176 52.8489 18.4C53.1902 18.6133 53.5849 18.72 54.0329 18.72ZM66.3939 20.192C65.6686 20.192 65.0339 20.0107 64.4899 19.648C63.9566 19.2853 63.5459 18.7733 63.2579 18.112C62.9806 17.44 62.8419 16.6507 62.8419 15.744C62.8419 14.8373 62.9859 14.0533 63.2739 13.392C63.5619 12.72 63.9726 12.2027 64.5059 11.84C65.0392 11.4773 65.6686 11.296 66.3939 11.296C66.9806 11.296 67.5032 11.4187 67.9619 11.664C68.4206 11.9093 68.7672 12.2507 69.0019 12.688V8.64H70.6979V20H69.1139L69.0659 18.72C68.8312 19.1787 68.4739 19.5413 67.9939 19.808C67.5246 20.064 66.9912 20.192 66.3939 20.192ZM66.8419 18.72C67.3006 18.72 67.6899 18.6027 68.0099 18.368C68.3299 18.1333 68.5752 17.792 68.7459 17.344C68.9166 16.896 69.0019 16.3627 69.0019 15.744C69.0019 15.104 68.9166 14.5653 68.7459 14.128C68.5752 13.68 68.3299 13.344 68.0099 13.12C67.6899 12.8853 67.3006 12.768 66.8419 12.768C66.1592 12.768 65.6152 13.0347 65.2099 13.568C64.8046 14.0907 64.6019 14.816 64.6019 15.744C64.6019 16.6613 64.8046 17.3867 65.2099 17.92C65.6152 18.4533 66.1592 18.72 66.8419 18.72ZM72.631 20V11.488H74.327V20H72.631ZM72.599 10.256V8.56H74.359V10.256H72.599ZM78.7605 20.192C77.8752 20.192 77.1658 19.9893 76.6325 19.584C76.1098 19.1787 75.8485 18.608 75.8485 17.872C75.8485 17.136 76.0672 16.5653 76.5045 16.16C76.9525 15.744 77.6405 15.4453 78.5685 15.264L81.4965 14.704C81.4965 14.0427 81.3418 13.552 81.0325 13.232C80.7232 12.9013 80.2645 12.736 79.6565 12.736C79.1125 12.736 78.6858 12.8587 78.3765 13.104C78.0672 13.3387 77.8538 13.6907 77.7365 14.16L75.9925 14.048C76.1525 13.1947 76.5472 12.5227 77.1765 12.032C77.8165 11.5413 78.6432 11.296 79.6565 11.296C80.8085 11.296 81.6832 11.6053 82.2805 12.224C82.8885 12.832 83.1925 13.6907 83.1925 14.8V18.112C83.1925 18.3147 83.2245 18.4587 83.2885 18.544C83.3632 18.6187 83.4805 18.656 83.6405 18.656H83.9445V20C83.8912 20.0107 83.8058 20.0213 83.6885 20.032C83.5712 20.0427 83.4485 20.048 83.3205 20.048C82.9578 20.048 82.6432 19.9893 82.3765 19.872C82.1205 19.7547 81.9285 19.5627 81.8005 19.296C81.6725 19.0187 81.6085 18.6507 81.6085 18.192L81.7845 18.272C81.6992 18.6453 81.5125 18.976 81.2245 19.264C80.9472 19.552 80.5898 19.7813 80.1525 19.952C79.7258 20.112 79.2618 20.192 78.7605 20.192ZM79.0325 18.848C79.5445 18.848 79.9818 18.752 80.3445 18.56C80.7072 18.3573 80.9898 18.08 81.1925 17.728C81.3952 17.376 81.4965 16.976 81.4965 16.528V15.984L79.0005 16.464C78.4885 16.56 78.1258 16.7147 77.9125 16.928C77.7098 17.1307 77.6085 17.392 77.6085 17.712C77.6085 18.0747 77.7312 18.3573 77.9765 18.56C78.2325 18.752 78.5845 18.848 79.0325 18.848ZM85.1845 20V11.488H86.7365L86.7845 13.6L86.5925 13.536C86.6885 13.0667 86.8538 12.6667 87.0885 12.336C87.3338 12.0053 87.6325 11.7493 87.9845 11.568C88.3365 11.3867 88.7205 11.296 89.1365 11.296C89.8618 11.296 90.4538 11.504 90.9125 11.92C91.3712 12.3253 91.6592 12.8853 91.7765 13.6H91.5045C91.6005 13.0987 91.7605 12.6827 91.9845 12.352C92.2192 12.0107 92.5178 11.7493 92.8805 11.568C93.2432 11.3867 93.6538 11.296 94.1125 11.296C94.7098 11.296 95.2165 11.424 95.6325 11.68C96.0592 11.9253 96.3792 12.288 96.5925 12.768C96.8165 13.248 96.9285 13.8347 96.9285 14.528V20H95.2325V14.944C95.2325 14.208 95.0992 13.6533 94.8325 13.28C94.5658 12.9067 94.1605 12.72 93.6165 12.72C93.2645 12.72 92.9552 12.8107 92.6885 12.992C92.4218 13.1733 92.2138 13.4347 92.0645 13.776C91.9258 14.1173 91.8565 14.528 91.8565 15.008V20H90.2405V15.008C90.2405 14.2827 90.1178 13.7227 89.8725 13.328C89.6378 12.9227 89.2325 12.72 88.6565 12.72C88.2938 12.72 87.9792 12.8107 87.7125 12.992C87.4565 13.1733 87.2538 13.44 87.1045 13.792C86.9552 14.1333 86.8805 14.5387 86.8805 15.008V20H85.1845ZM103.233 20.192C102.646 20.192 102.123 20.064 101.665 19.808C101.217 19.5413 100.87 19.1787 100.625 18.72L100.577 20H98.9925V8.64H100.689V12.688C100.913 12.3147 101.243 11.9893 101.681 11.712C102.129 11.4347 102.646 11.296 103.233 11.296C103.969 11.296 104.609 11.4773 105.153 11.84C105.697 12.2027 106.113 12.72 106.401 13.392C106.699 14.0533 106.849 14.8373 106.849 15.744C106.849 16.6507 106.699 17.44 106.401 18.112C106.113 18.7733 105.697 19.2853 105.153 19.648C104.609 20.0107 103.969 20.192 103.233 20.192ZM102.961 18.72C103.611 18.72 104.129 18.4587 104.513 17.936C104.897 17.4027 105.089 16.672 105.089 15.744C105.089 14.816 104.897 14.0907 104.513 13.568C104.129 13.0347 103.617 12.768 102.977 12.768C102.497 12.768 102.086 12.8853 101.745 13.12C101.403 13.3547 101.142 13.696 100.961 14.144C100.779 14.5813 100.689 15.1147 100.689 15.744C100.689 16.352 100.779 16.88 100.961 17.328C101.142 17.776 101.403 18.1227 101.745 18.368C102.086 18.6027 102.491 18.72 102.961 18.72ZM108.379 20V11.488H110.075V20H108.379ZM108.347 10.256V8.56H110.107V10.256H108.347ZM114.011 20C113.457 20 113.009 19.856 112.667 19.568C112.326 19.28 112.155 18.8213 112.155 18.192V8.64H113.851V18.032C113.851 18.224 113.899 18.368 113.995 18.464C114.102 18.56 114.251 18.608 114.443 18.608H115.115V20H114.011Z" fill="#7348C0"/>
</svg>
