<svg width="24" height="24" viewBox="0 0 24 24" fill="none" xmlns="http://www.w3.org/2000/svg">
<g clip-path="url(#clip0_582_7252)">
<path d="M12.4884 4.15499C12.1759 3.84241 11.7521 3.66675 11.3101 3.66666H5.33341C4.89139 3.66666 4.46746 3.84225 4.1549 4.15481C3.84234 4.46737 3.66675 4.8913 3.66675 5.33332V11.31C3.66684 11.752 3.8425 12.1758 4.15508 12.4883L11.4084 19.7417C11.7872 20.118 12.2995 20.3293 12.8334 20.3293C13.3674 20.3293 13.8797 20.118 14.2584 19.7417L19.7417 14.2583C20.1181 13.8796 20.3294 13.3673 20.3294 12.8333C20.3294 12.2994 20.1181 11.7871 19.7417 11.4083L12.4884 4.15499Z" stroke="#A3A3A3" stroke-width="1.45833" stroke-linecap="round" stroke-linejoin="round"/>
<path d="M8.24992 8.66668C8.48004 8.66668 8.66659 8.48013 8.66659 8.25001C8.66659 8.01989 8.48004 7.83334 8.24992 7.83334C8.0198 7.83334 7.83325 8.01989 7.83325 8.25001C7.83325 8.48013 8.0198 8.66668 8.24992 8.66668Z" stroke="#A3A3A3" stroke-width="1.45833" stroke-linecap="round" stroke-linejoin="round"/>
</g>
<defs>
<clipPath id="clip0_582_7252">
<rect width="20" height="20" fill="white" transform="translate(2 2)"/>
</clipPath>
</defs>
</svg>
