<svg width="24" height="19" viewBox="0 0 24 19" fill="none" xmlns="http://www.w3.org/2000/svg">
<path d="M22.8 2.375H1.2C0.537375 2.375 0 2.90678 0 3.5625V15.4375C0 16.0932 0.537375 16.625 1.2 16.625H22.8C23.4626 16.625 24 16.0932 24 15.4375V3.5625C24 2.90678 23.4626 2.375 22.8 2.375ZM1.8 14.8438V12.4688C3.12563 12.4688 4.2 13.5319 4.2 14.8438H1.8ZM1.8 6.53125V4.15625H4.2C4.2 5.46807 3.12563 6.53125 1.8 6.53125ZM12 13.0625C10.3429 13.0625 9 11.4672 9 9.5C9 7.53246 10.3433 5.9375 12 5.9375C13.6568 5.9375 15 7.53246 15 9.5C15 11.4679 13.6564 13.0625 12 13.0625ZM22.2 14.8438H19.8C19.8 13.5319 20.8744 12.4688 22.2 12.4688V14.8438ZM22.2 6.53125C20.8744 6.53125 19.8 5.46807 19.8 4.15625H22.2V6.53125Z" fill="#A3A3A3"/>
</svg>
